<?xml version="1.0" encoding="UTF-8" standalone="no"?>
<svg width="85px" height="112px" viewBox="0 0 85 112" version="1.1" xmlns="http://www.w3.org/2000/svg" xmlns:xlink="http://www.w3.org/1999/xlink" xmlns:sketch="http://www.bohemiancoding.com/sketch/ns">
    <!-- Generator: Sketch 3.3.2 (12043) - http://www.bohemiancoding.com/sketch -->
    <title>icon-add-stickers</title>
    <desc>Created with Sketch.</desc>
    <defs>
        <filter x="-50%" y="-50%" width="200%" height="200%" filterUnits="objectBoundingBox" id="filter-1">
            <feOffset dx="2" dy="2" in="SourceAlpha" result="shadowOffsetOuter1"></feOffset>
            <feGaussianBlur stdDeviation="0" in="shadowOffsetOuter1" result="shadowBlurOuter1"></feGaussianBlur>
            <feColorMatrix values="0 0 0 0 0.650980392   0 0 0 0 0.564705882   0 0 0 0 0.11372549  0 0 0 0.7 0" in="shadowBlurOuter1" type="matrix" result="shadowMatrixOuter1"></feColorMatrix>
            <feMerge>
                <feMergeNode in="shadowMatrixOuter1"></feMergeNode>
                <feMergeNode in="SourceGraphic"></feMergeNode>
            </feMerge>
        </filter>
    </defs>
    <g id="Page-1" stroke="none" stroke-width="1" fill="none" fill-rule="evenodd" sketch:type="MSPage">
        <g id="instafunk-edit" sketch:type="MSArtboardGroup" transform="translate(-118.000000, -393.000000)">
            <g id="icon-add-stickers" sketch:type="MSLayerGroup" transform="translate(113.000000, 393.000000)">
                <g transform="translate(5.000000, 27.000000)" sketch:type="MSShapeGroup">
                    <circle id="Oval-42" fill="#FFDE00" filter="url(#filter-1)" cx="41.5" cy="41.5" r="41.5"></circle>
                    <g id="Imported-Layers" transform="translate(19.153846, 9.576923)">
                        <path d="M16.8051184,61.4459225 C16.5528704,61.4459225 16.3017849,61.4042416 16.0123391,61.3174062 C14.7278507,60.9318575 13.4387125,60.5544134 12.0972649,60.1619178 L8.96102079,59.2414636 L10.8743854,52.8469118 C10.8685733,52.8434384 10.8615987,52.839965 10.8557865,52.8364916 C9.90375392,52.3293734 8.9191732,51.8048881 7.99038927,51.1634647 C6.45249048,50.1017584 5.20868722,48.8744861 4.29617735,47.5163819 C3.35693152,46.1189124 2.75130395,44.561666 2.49440627,42.8863235 C2.3897873,42.2009035 2.36188891,41.5015899 2.4107111,40.8069074 C2.65830932,37.3091814 4.87623139,34.3834105 8.05664795,33.3518071 C8.85988912,33.092459 9.70846518,32.9523647 10.5814523,32.9384711 L10.7116448,32.9361555 C11.791545,32.9361555 12.8435469,33.1607695 13.8130159,33.5926304 C13.1411297,32.8516358 12.5134159,32.0492776 11.9507983,31.1693465 C7.83927299,24.7319559 9.80378468,16.3760841 16.4238404,12.1454681 C18.8021782,10.6264292 21.3990534,9.78817902 24.1458825,9.65155814 C24.5271605,8.31545226 24.9270374,6.9851354 25.3280768,5.65597635 L25.6233348,4.67878973 C25.6849437,4.4715428 25.7709637,4.2712427 25.8779076,4.03852408 L25.9709022,3.83127716 L26.5881541,2.40023135 L28.7107567,2.99881604 C29.1885166,3.13196351 29.6627893,3.26511098 30.1358995,3.40288966 L31.3808652,3.77222915 C32.0236906,3.96326682 32.6653536,4.15546229 33.3093414,4.33607973 C34.0288874,4.53869544 34.5450077,4.92308638 34.8402656,5.47999013 C35.1401733,6.0426829 35.1692342,6.69452658 34.9274481,7.41699631 C34.6124288,8.35713321 34.3264703,9.30769033 34.0405118,10.2570897 C33.9544917,10.5465407 33.8673093,10.8359917 33.7789644,11.1242849 C36.1933376,12.1211542 38.0985652,13.4549445 39.593454,15.1870193 C42.0194516,17.9946942 42.930799,21.0640327 42.3042476,24.3105153 C41.6788587,27.5512088 38.812299,30.1898443 35.4865784,30.5823398 C35.1111125,30.6263364 34.7344842,30.6483347 34.3648306,30.6483347 C33.7545533,30.6483347 33.1640373,30.5881288 32.5990949,30.4711906 C33.125677,31.0199898 33.6313354,31.5965762 34.1114202,32.2090545 C37.773084,36.8923719 37.7440232,43.143356 34.0381869,48.1334915 C31.627301,51.3788162 28.2841438,53.4373919 24.0993852,54.2490125 C22.8462824,54.4933092 21.5780681,54.6033005 20.4237722,54.688978 C20.184311,55.5063877 19.9367127,56.3180083 19.6879521,57.1284712 C19.4194301,58.0049288 19.1509081,58.8802287 18.8963352,59.7613176 C18.4453113,61.3243531 17.1817466,61.4459225 16.8051184,61.4459225 L16.8051184,61.4459225 Z M18.1826014,42.9094796 C18.3046569,42.9175842 18.4278748,42.9210576 18.5534175,42.9210576 C18.9253961,42.9210576 19.3241106,42.8851657 19.7379367,42.8133819 C20.5481525,42.6721298 21.1258817,42.3942568 21.553657,41.9415554 C21.9907318,41.4795916 22.3568982,40.7768045 21.6222405,40.047388 C20.8922326,39.3214448 19.9715857,38.6742324 19.0811621,38.0490182 C18.5104075,37.6472602 17.9361656,37.2316085 17.3665735,36.7962742 C18.4336869,38.6279202 18.7521936,40.8485884 18.1826014,42.9094796 L18.1826014,42.9094796 Z M26.563743,21.0258252 C25.6140353,21.1068714 24.7794084,21.5213653 24.4260288,22.108372 C23.9843043,22.8412619 24.2319025,23.1110303 24.3376839,23.2256529 C25.0955902,24.0511672 25.9860138,24.7991086 26.8764375,25.5181049 C26.7776307,25.2448631 26.6927731,24.9623589 26.6207022,24.6729079 C26.3103326,23.4247952 26.2940586,22.1871026 26.563743,21.0258252 L26.563743,21.0258252 Z" id="Fill-1" fill="#FFDF17"></path>
                        <path d="M27.6349731,4.28897489 C28.3224912,4.48361044 28.9994861,4.66892212 29.6753117,4.86588863 C30.7451741,5.17940337 31.8115287,5.50923487 32.8848988,5.81109479 C33.3502597,5.9416288 33.4671846,6.12810597 33.299982,6.63042885 C32.7668047,8.22480864 32.3143055,9.84599453 31.8091902,11.4508637 C31.6665419,11.9019053 31.8162057,12.0720657 32.2441506,12.2247439 C34.5884939,13.0568983 36.6966489,14.2806547 38.334766,16.1792254 C40.2406411,18.3878144 41.2333331,20.8959323 40.6604013,23.8632502 C40.1739939,26.3911814 37.9033134,28.4389338 35.3508439,28.7407937 C35.0386545,28.7780891 34.7323114,28.7955714 34.4329838,28.7955714 C31.4350307,28.7955714 29.0895182,26.9902393 28.3809536,24.1359731 C28.058241,22.8364603 28.1085187,21.4938247 28.6989892,20.2316074 C28.8077293,19.9985109 28.9129617,19.7654145 29.0439175,19.4810368 C28.3540609,19.2188033 27.6326346,19.0940966 26.9299162,19.0940966 C25.2356752,19.0940966 23.6513435,19.8178612 22.9006859,21.0660927 C22.2412298,22.1616461 22.1511976,23.3597619 23.0257955,24.3119609 C24.011472,25.3877011 25.1678587,26.3189215 26.3137223,27.2349906 C28.6171418,29.0776181 30.9299153,30.8981015 32.7644662,33.2477138 C36.0769472,37.4877384 35.7378651,42.9783256 32.6650801,47.1192842 C30.4411695,50.1157392 27.4046311,51.879114 23.7647606,52.5865617 C22.463387,52.8394714 21.1281052,52.9397029 19.8033467,53.0352724 C19.2725078,53.0737333 19.0000729,53.2019364 18.8457321,53.7450511 C18.3078778,55.6342979 17.6986994,57.5037316 17.1538296,59.3918129 C17.0684744,59.6878454 16.9573958,59.7962353 16.7703161,59.7962353 C16.6919764,59.7962353 16.600775,59.7775876 16.4920349,59.744954 C14.7428392,59.2193215 12.9877972,58.7088403 11.1088149,58.1564017 C11.7343628,56.0678574 12.347049,54.0212704 12.935181,52.0516053 C11.5484523,51.2695667 10.1640621,50.6203931 8.92465866,49.764929 C7.6162696,48.8616803 6.50782203,47.8069188 5.67648635,46.5668456 C4.90712084,45.422342 4.37394352,44.1204982 4.14594007,42.6298464 C4.05824643,42.0575945 4.03836921,41.4876737 4.07812365,40.9317386 C4.26988041,38.2266542 5.91384379,35.8455738 8.52594493,34.9982682 C9.14564663,34.7978053 9.81796451,34.681257 10.5405601,34.6696022 C10.5744683,34.6684367 10.6083765,34.6684367 10.6422847,34.6684367 C11.8770111,34.6684367 12.9901357,35.0413911 13.9150112,35.6625931 C16.3868026,37.3234054 17.5057734,40.7674056 15.9378111,43.6764495 C15.8699947,43.8011561 15.8091938,43.9305246 15.7133154,44.1204982 C16.633514,44.5412373 17.574759,44.7195561 18.5288658,44.7195561 C19.0257964,44.7195561 19.5250655,44.6706059 20.0278424,44.5831947 C21.0965355,44.3967175 22.0810427,43.9853023 22.8504082,43.1717956 C24.1155351,41.8338219 24.1880285,40.0774401 22.8808087,38.7779273 C22.044796,37.9481039 21.061458,37.2534765 20.0933203,36.5716693 C17.5303276,34.7675027 15.1123217,32.8316366 13.3982034,30.1451999 C9.70103966,24.3527528 11.7565785,17.0358549 17.3537711,13.4566587 C19.541435,12.05808 21.9559331,11.2876961 24.5516648,11.2142708 C25.3420768,11.1909611 25.6145117,10.8611296 25.8015914,10.1979702 C26.2973528,8.44158835 26.8305301,6.69686134 27.3555227,4.94980336 C27.4151544,4.7493404 27.5180482,4.56169775 27.6349731,4.28897489 M25.5841112,0 L24.3447078,2.88223775 C24.3178151,2.94400831 24.2920916,2.99762049 24.2687067,3.04890172 C24.1704898,3.2610195 24.0360262,3.55239007 23.9249476,3.92534441 L23.6384817,4.87637797 C23.3520158,5.82508057 23.0597037,6.79592734 22.7744071,7.77260151 C20.1716599,8.09310914 17.7045456,8.991696 15.4198341,10.4532108 C8.2336328,15.0487076 5.89864356,23.9541579 9.82614925,31.1311979 C8.99949057,31.194134 8.19153986,31.353805 7.41749735,31.6043837 C3.52039212,32.868932 0.807735615,36.430646 0.506069503,40.6799945 C0.44643783,41.5121488 0.480346036,42.3489651 0.605455625,43.1682992 C0.903613991,45.1146546 1.60867083,46.9258141 2.69957968,48.551662 C3.74371858,50.1064154 5.15149377,51.5014977 6.88432004,52.698448 C7.47946752,53.1086978 8.079292,53.4676663 8.67560873,53.8021598 L6.65163959,60.5677846 L10.0962457,61.5805887 L11.5694988,62.0129826 C12.8989343,62.4022537 14.1804306,62.777539 15.4584193,63.1621482 C15.9144262,63.2996751 16.3435404,63.3661076 16.7703161,63.3661076 C18.1371676,63.3661076 19.9588567,62.5840689 20.5949279,60.3789764 C20.8474856,59.5036992 21.1140742,58.6330839 21.3806629,57.7624686 C21.5116187,57.3335712 21.6460823,56.8976808 21.7782074,56.4582939 C22.637605,56.3778757 23.5379263,56.2671548 24.4499402,56.0900015 C29.1117339,55.1832563 32.8451444,52.8790978 35.5437699,49.242793 C39.4069669,44.035418 39.6934328,37.349046 36.3938135,32.1894559 C40.2242716,31.4668568 43.444382,28.3375368 44.1775008,24.5357335 C44.9152966,20.7059587 43.8629729,17.1116112 41.0497611,13.8517572 C39.6782326,12.2632048 38.014392,10.9753469 36.0067923,9.95438439 C36.2336265,9.2026483 36.456953,8.4777183 36.6978182,7.75861572 C37.200595,6.25281258 36.8650207,5.10714347 36.4943689,4.41018505 C36.1260556,3.71672308 35.3695519,2.80065398 33.8577136,2.37641842 C33.2134576,2.19460319 32.5715402,2.0022986 31.9296228,1.81115951 C31.5133703,1.6864529 31.0982871,1.56291177 30.6820346,1.44053613 C30.203812,1.30184374 29.7244201,1.16664779 29.2415205,1.03145184 L28.6112956,0.855464014 L25.5841112,0" id="Fill-2" fill="#A2801C"></path>
                        <path d="M36.5273669,22.7456539 L40.0889688,7.68074031 L37.6453173,22.9695216 L46.6704143,10.4213891 L38.5922466,23.6065061 L51.7069303,15.486108 L39.2258284,24.5585209 L54.4329389,22.1017457 L39.4485002,25.6824754 L54.4329389,29.2632052 L39.2258284,26.8064299 L51.7069303,35.8799968 L38.5922466,27.7595987 L46.6704143,40.9435618 L37.6453173,28.3954292 L40.0889688,43.6842105 L36.5273669,28.6192969 L32.9657649,43.6842105 L35.4094164,28.3954292 L26.3854672,40.9435618 L34.4624871,27.7595987 L21.3478034,35.8799968 L33.8289053,26.8064299 L18.6217949,29.2632052 L33.6062335,25.6824754 L18.6217949,22.1017457 L33.8289053,24.5585209 L21.3478034,15.486108 L34.4624871,23.6065061 L26.3854672,10.4213891 L35.4094164,22.9695216 L32.9657649,7.68074031 L36.5273669,22.7456539" id="Fill-3" fill="#FFFFFF"></path>
                    </g>
                </g>
                <g id="Path-25-+-Path-26" transform="translate(0.000000, 15.000000)" stroke="#A58F2B" stroke-width="2" sketch:type="MSShapeGroup" stroke-linecap="round" stroke-linejoin="round">
                    <path d="M11.4838396,1.10546875 C24.8119646,6.27539062 32.9604021,26.296875 19.8549334,42" id="Path-25" transform="translate(18.989875, 21.552734) scale(-1, 1) rotate(37.000000) translate(-18.989875, -21.552734) "></path>
                    <path d="M23.2326964,34.0839879 C25.0814465,42.6341322 22.4984439,41.04527 30.9514464,38.8994176" id="Path-26" transform="translate(27.092071, 37.341266) scale(-1, 1) rotate(37.000000) translate(-27.092071, -37.341266) "></path>
                </g>
                <path d="M21.4506429,2.213 L24.5636429,2.213 C24.8496429,2.213 25.0146429,1.916 25.0146429,1.575 C25.0146429,1.278 24.8716429,0.959 24.5636429,0.959 L20.6476429,0.959 C20.3286429,0.959 20.0206429,1.113 20.0206429,1.41 L20.0206429,8.549 C20.0206429,8.846 20.3286429,9 20.6476429,9 L24.5636429,9 C24.8716429,9 25.0146429,8.681 25.0146429,8.384 C25.0146429,8.043 24.8496429,7.746 24.5636429,7.746 L21.4506429,7.746 L21.4506429,5.535 L23.1226429,5.535 C23.4306429,5.535 23.5736429,5.238 23.5736429,4.985 C23.5736429,4.688 23.4086429,4.413 23.1226429,4.413 L21.4506429,4.413 L21.4506429,2.213 Z M28.7373572,7.812 C27.6153572,7.812 27.3183572,6.965 26.8673572,6.965 C26.5263572,6.965 26.2403572,7.427 26.2403572,7.735 C26.2403572,8.373 27.3403572,9.099 28.7813572,9.099 C30.2993572,9.099 31.3993572,8.285 31.3993572,6.712 C31.3993572,3.863 27.8683572,4.336 27.8683572,2.972 C27.8683572,2.444 28.3193572,2.125 29.1113572,2.125 C30.0353572,2.125 30.2883572,2.543 30.6293572,2.543 C31.0253572,2.543 31.2013572,2.037 31.2013572,1.784 C31.2013572,1.058 29.7603572,0.904 29.1113572,0.904 C27.8463572,0.904 26.4383572,1.465 26.4383572,3.104 C26.4383572,5.711 29.9693572,5.205 29.9693572,6.855 C29.9693572,7.515 29.3973572,7.812 28.7373572,7.812 L28.7373572,7.812 Z M36.8160715,3.302 C36.8270715,3.632 37.1240715,3.753 37.5310715,3.753 C38.0150715,3.753 38.2460715,3.621 38.2460715,3.049 C38.2460715,1.773 37.1570715,0.959 35.6280715,0.959 C34.2420715,0.959 33.0870715,1.641 33.0870715,3.478 L33.0870715,6.547 C33.0870715,8.384 34.2310715,9.066 35.6170715,9.066 C37.1570715,9.066 38.2460715,8.219 38.2460715,6.888 C38.2460715,6.327 38.0150715,6.184 37.5200715,6.184 C37.1460715,6.184 36.8380715,6.294 36.8160715,6.635 C36.7830715,7.097 36.6950715,7.812 35.6940715,7.812 C34.9350715,7.812 34.5170715,7.405 34.5170715,6.547 L34.5170715,3.478 C34.5170715,2.62 34.9350715,2.213 35.6720715,2.213 C36.7170715,2.213 36.7940715,2.961 36.8160715,3.302 L36.8160715,3.302 Z M42.4857857,9.066 C43.9377857,9.066 45.0707857,8.384 45.0707857,6.547 L45.0707857,3.478 C45.0707857,1.641 43.9377857,0.959 42.4857857,0.959 C41.0337857,0.959 39.9117857,1.641 39.9117857,3.478 L39.9117857,6.547 C39.9117857,8.384 41.0337857,9.066 42.4857857,9.066 L42.4857857,9.066 Z M43.6407857,6.547 C43.6407857,7.416 43.2007857,7.812 42.4857857,7.812 C41.7597857,7.812 41.3417857,7.416 41.3417857,6.547 L41.3417857,3.478 C41.3417857,2.609 41.7597857,2.213 42.4857857,2.213 C43.2007857,2.213 43.6407857,2.609 43.6407857,3.478 L43.6407857,6.547 Z M51.1915,9 C51.4775,9 51.6205,8.681 51.6205,8.373 C51.6205,8.054 51.4775,7.746 51.1915,7.746 L48.5075,7.746 L48.5075,1.399 C48.5075,1.091 48.1445,0.959 47.7925,0.959 C47.4295,0.959 47.0775,1.091 47.0775,1.399 L47.0775,8.549 C47.0775,8.846 47.3855,9 47.7045,9 L51.1915,9 Z M57.0922143,8.549 C57.0922143,8.846 57.4442143,9 57.8072143,9 C58.1592143,9 58.5222143,8.846 58.5222143,8.549 L58.5222143,1.399 C58.5222143,1.091 58.1592143,0.959 57.8072143,0.959 C57.4442143,0.959 57.0922143,1.091 57.0922143,1.399 L57.0922143,4.27 L54.6172143,4.27 L54.6172143,1.399 C54.6172143,1.091 54.2542143,0.959 53.9022143,0.959 C53.5392143,0.959 53.1872143,1.091 53.1872143,1.399 L53.1872143,8.549 C53.1872143,8.846 53.5392143,9 53.9022143,9 C54.2542143,9 54.6172143,8.846 54.6172143,8.549 L54.6172143,5.392 L57.0922143,5.392 L57.0922143,8.549 Z M62.0579285,2.213 L65.1709285,2.213 C65.4569285,2.213 65.6219285,1.916 65.6219285,1.575 C65.6219285,1.278 65.4789285,0.959 65.1709285,0.959 L61.2549285,0.959 C60.9359285,0.959 60.6279285,1.113 60.6279285,1.41 L60.6279285,8.549 C60.6279285,8.846 60.9359285,9 61.2549285,9 L65.1709285,9 C65.4789285,9 65.6219285,8.681 65.6219285,8.384 C65.6219285,8.043 65.4569285,7.746 65.1709285,7.746 L62.0579285,7.746 L62.0579285,5.535 L63.7299285,5.535 C64.0379285,5.535 64.1809285,5.238 64.1809285,4.985 C64.1809285,4.688 64.0159285,4.413 63.7299285,4.413 L62.0579285,4.413 L62.0579285,2.213 Z M67.2436428,8.549 C67.2436428,8.846 67.6066428,9 67.9586428,9 C68.3216428,9 68.6736428,8.846 68.6736428,8.549 L68.6736428,5.678 L69.5976428,5.678 L71.1596428,8.714 C71.2696428,8.934 71.4566428,9.055 71.6546428,9.055 C72.0726428,9.055 72.5456428,8.67 72.5456428,8.307 C72.5456428,8.263 72.5346428,8.186 72.4906428,8.131 L71.0496428,5.458 C71.8746428,5.205 72.4906428,4.523 72.4906428,3.258 C72.4906428,1.509 71.3246428,0.959 69.8836428,0.959 L67.7056428,0.959 C67.4306428,0.959 67.2436428,1.168 67.2436428,1.399 L67.2436428,8.549 Z M69.8836428,2.213 C70.5986428,2.213 71.0606428,2.521 71.0606428,3.39 C71.0606428,4.259 70.5986428,4.556 69.8836428,4.556 L68.6736428,4.556 L68.6736428,2.213 L69.8836428,2.213 Z M21.6486429,21 C21.8906429,21 22.0776429,20.923 22.1326429,20.714 L22.5506429,19.251 L25.0696429,19.251 L25.4876429,20.714 C25.5426429,20.923 25.7296429,21 25.9716429,21 C26.3566429,21 26.8736429,20.747 26.8736429,20.406 C26.8736429,20.373 26.8626429,20.34 26.8516429,20.296 L24.7286429,13.377 C24.6296429,13.047 24.2226429,12.893 23.8046429,12.893 C23.3976429,12.893 22.9906429,13.047 22.8916429,13.377 L20.7686429,20.296 C20.7576429,20.34 20.7466429,20.384 20.7466429,20.406 C20.7466429,20.758 21.2636429,21 21.6486429,21 L21.6486429,21 Z M22.8476429,18.129 L23.8046429,14.752 L24.7616429,18.129 L22.8476429,18.129 Z M29.0453572,12.959 C28.6713572,12.959 28.4183572,13.168 28.4183572,13.399 L28.4183572,20.56 C28.4183572,20.791 28.6713572,21 29.0453572,21 L30.9923572,21 C32.4443572,21 33.5773572,20.318 33.5773572,18.481 L33.5773572,15.478 C33.5773572,13.641 32.4443572,12.959 30.9923572,12.959 L29.0453572,12.959 Z M30.9923572,14.213 C31.7183572,14.213 32.1473572,14.62 32.1473572,15.478 L32.1473572,18.481 C32.1473572,19.339 31.7183572,19.746 30.9923572,19.746 L29.8483572,19.746 L29.8483572,14.213 L30.9923572,14.213 Z M37.0140715,14.213 L40.1270715,14.213 C40.4130715,14.213 40.5780715,13.916 40.5780715,13.575 C40.5780715,13.278 40.4350715,12.959 40.1270715,12.959 L36.2110715,12.959 C35.8920715,12.959 35.5840715,13.113 35.5840715,13.41 L35.5840715,20.549 C35.5840715,20.846 35.8920715,21 36.2110715,21 L40.1270715,21 C40.4350715,21 40.5780715,20.681 40.5780715,20.384 C40.5780715,20.043 40.4130715,19.746 40.1270715,19.746 L37.0140715,19.746 L37.0140715,17.535 L38.6860715,17.535 C38.9940715,17.535 39.1370715,17.238 39.1370715,16.985 C39.1370715,16.688 38.9720715,16.413 38.6860715,16.413 L37.0140715,16.413 L37.0140715,14.213 Z M44.1577857,21.297 C44.1577857,21.44 44.3227857,21.572 44.5317857,21.572 C44.7187857,21.572 44.9057857,21.44 44.9057857,21.297 L44.9057857,20.956 C46.1377857,20.758 46.9847857,19.977 46.9847857,18.624 C46.9847857,17.128 45.8847857,16.633 44.9057857,16.27 L44.9057857,14.334 C45.6427857,14.389 45.8957857,14.741 46.2037857,14.741 C46.6107857,14.741 46.7867857,14.235 46.7867857,13.982 C46.7867857,13.344 45.6207857,13.135 44.9057857,13.113 L44.9057857,12.827 C44.9057857,12.684 44.7187857,12.552 44.5317857,12.552 C44.3227857,12.552 44.1577857,12.684 44.1577857,12.827 L44.1577857,13.135 C43.0577857,13.278 42.0237857,13.883 42.0237857,15.28 C42.0237857,16.688 43.1567857,17.117 44.1577857,17.491 L44.1577857,19.68 C43.1897857,19.57 42.8597857,18.855 42.4417857,18.855 C42.1007857,18.855 41.8257857,19.317 41.8257857,19.625 C41.8257857,20.241 42.8267857,20.956 44.1577857,20.989 L44.1577857,21.297 Z M45.6427857,18.767 C45.6427857,19.284 45.3017857,19.57 44.8177857,19.669 L44.8177857,17.755 C45.2907857,17.964 45.6427857,18.228 45.6427857,18.767 L45.6427857,18.767 Z M43.3657857,15.137 C43.3657857,14.719 43.6957857,14.455 44.2457857,14.367 L44.2457857,16.028 C43.7397857,15.83 43.3657857,15.621 43.3657857,15.137 L43.3657857,15.137 Z M48.7605,20.549 C48.7605,20.846 49.1125,21 49.4755,21 C49.8275,21 50.1905,20.846 50.1905,20.549 L50.1905,13.399 C50.1905,13.091 49.8275,12.959 49.4755,12.959 C49.1125,12.959 48.7605,13.091 48.7605,13.399 L48.7605,20.549 Z M53.8802143,20.582 C53.9902143,20.912 54.3862143,21.066 54.8042143,21.066 C55.2222143,21.066 55.6292143,20.912 55.7282143,20.582 L57.8402143,13.663 C57.8512143,13.619 57.8622143,13.586 57.8622143,13.553 C57.8622143,13.212 57.3452143,12.959 56.9602143,12.959 C56.7182143,12.959 56.5312143,13.036 56.4762143,13.245 L54.8042143,19.207 L53.1212143,13.245 C53.0662143,13.036 52.8792143,12.959 52.6372143,12.959 C52.2522143,12.959 51.7352143,13.201 51.7352143,13.553 C51.7352143,13.575 51.7462143,13.619 51.7572143,13.663 L53.8802143,20.582 Z M61.8929285,21.066 C63.3449285,21.066 64.4779285,20.384 64.4779285,18.547 L64.4779285,15.478 C64.4779285,13.641 63.3449285,12.959 61.8929285,12.959 C60.4409285,12.959 59.3189285,13.641 59.3189285,15.478 L59.3189285,18.547 C59.3189285,20.384 60.4409285,21.066 61.8929285,21.066 L61.8929285,21.066 Z M63.0479285,18.547 C63.0479285,19.416 62.6079285,19.812 61.8929285,19.812 C61.1669285,19.812 60.7489285,19.416 60.7489285,18.547 L60.7489285,15.478 C60.7489285,14.609 61.1669285,14.213 61.8929285,14.213 C62.6079285,14.213 63.0479285,14.609 63.0479285,15.478 L63.0479285,18.547 Z M68.5856428,19.812 C67.4636428,19.812 67.1666428,18.965 66.7156428,18.965 C66.3746428,18.965 66.0886428,19.427 66.0886428,19.735 C66.0886428,20.373 67.1886428,21.099 68.6296428,21.099 C70.1476428,21.099 71.2476428,20.285 71.2476428,18.712 C71.2476428,15.863 67.7166428,16.336 67.7166428,14.972 C67.7166428,14.444 68.1676428,14.125 68.9596428,14.125 C69.8836428,14.125 70.1366428,14.543 70.4776428,14.543 C70.8736428,14.543 71.0496428,14.037 71.0496428,13.784 C71.0496428,13.058 69.6086428,12.904 68.9596428,12.904 C67.6946428,12.904 66.2866428,13.465 66.2866428,15.104 C66.2866428,17.711 69.8176428,17.205 69.8176428,18.855 C69.8176428,19.515 69.2456428,19.812 68.5856428,19.812 L68.5856428,19.812 Z" id="escolher" fill="#FFFFFF" sketch:type="MSShapeGroup"></path>
            </g>
        </g>
    </g>
</svg>