<?xml version="1.0" encoding="UTF-8" standalone="no"?>
<svg width="21px" height="19px" viewBox="0 0 21 19" version="1.1" xmlns="http://www.w3.org/2000/svg" xmlns:xlink="http://www.w3.org/1999/xlink" xmlns:sketch="http://www.bohemiancoding.com/sketch/ns">
    <!-- Generator: Sketch 3.3.2 (12043) - http://www.bohemiancoding.com/sketch -->
    <title>icon-library</title>
    <desc>Created with Sketch.</desc>
    <defs></defs>
    <g id="Page-1" stroke="none" stroke-width="1" fill="none" fill-rule="evenodd" sketch:type="MSPage">
        <g id="instafunk-home" sketch:type="MSArtboardGroup" transform="translate(-204.000000, -388.000000)" fill="#A6901D">
            <g id="icon-library" sketch:type="MSLayerGroup" transform="translate(204.000000, 388.000000)">
                <path d="M19.5138889,0.6 L1.73611111,0.6 C1.12277778,0.6 0.625,1.09777778 0.625,1.71111111 L0.625,17.2666667 C0.625,17.88 1.12277778,18.3777778 1.73611111,18.3777778 L19.5138889,18.3777778 C20.1272222,18.3777778 20.625,17.88 20.625,17.2666667 L20.625,1.71111111 C20.625,1.09777778 20.1272222,0.6 19.5138889,0.6 L19.5138889,0.6 Z M18.4027778,15.6 C18.4027778,15.9066667 18.1538889,16.1555556 17.8472222,16.1555556 L8.84944444,16.1555556 L15.0738889,9.93111111 L18.4027778,13.26 L18.4027778,15.6 L18.4027778,15.6 Z M18.4027778,10.1622222 L15.9916667,7.75111111 C15.9527778,7.69444444 15.9083333,7.64 15.8583333,7.59 C15.6405556,7.37222222 15.3527778,7.26444444 15.0672222,7.26777778 C14.7827778,7.26444444 14.4972222,7.37111111 14.2794444,7.58888889 C14.235,7.63333333 14.195,7.68222222 14.1594444,7.73222222 L5.735,16.1566667 L3.40388889,16.1566667 C3.09722222,16.1566667 2.84833333,15.9077778 2.84833333,15.6011111 L2.84833333,3.37888889 C2.84833333,3.07222222 3.09722222,2.82333333 3.40388889,2.82333333 L17.8472222,2.82333333 C18.1538889,2.82333333 18.4027778,3.07222222 18.4027778,3.37888889 L18.4027778,10.1633333 L18.4027778,10.1622222 Z" id="Shape" sketch:type="MSShapeGroup"></path>
                <path d="M6.625,4.6 C5.52,4.6 4.625,5.495 4.625,6.6 C4.625,7.705 5.52,8.6 6.625,8.6 C7.729,8.6 8.625,7.705 8.625,6.6 C8.625,5.495 7.729,4.6 6.625,4.6 L6.625,4.6 Z" id="Shape" sketch:type="MSShapeGroup"></path>
            </g>
        </g>
    </g>
</svg>