<?xml version="1.0" encoding="UTF-8" standalone="no"?>
<svg width="16px" height="12px" viewBox="0 0 16 12" version="1.1" xmlns="http://www.w3.org/2000/svg" xmlns:xlink="http://www.w3.org/1999/xlink" xmlns:sketch="http://www.bohemiancoding.com/sketch/ns">
    <!-- Generator: Sketch 3.3.2 (12043) - http://www.bohemiancoding.com/sketch -->
    <title>icon-done</title>
    <desc>Created with Sketch.</desc>
    <defs></defs>
    <g id="Page-1" stroke="none" stroke-width="1" fill="none" fill-rule="evenodd" sketch:type="MSPage">
        <g id="instafunk-edit-copy" sketch:type="MSArtboardGroup" transform="translate(-263.000000, -429.000000)" fill="#FFFFFF">
            <g id="icon-done" sketch:type="MSLayerGroup" transform="translate(271.267767, 433.441413) rotate(-45.000000) translate(-271.267767, -433.441413) translate(264.000000, 429.000000)">
                <path d="M10.3498034,5.04688514 C10.266687,5.04688514 3.81742253,5.03412708 3.74208229,5.01046375 C3.41906954,4.90900987 3.18455491,4.60709859 3.18455491,4.25074641 L3.18455491,1.84640746 C3.18455491,0.975431691 2.47917599,0.27005278 1.60820023,0.27005278 C0.705378912,0.27005278 -1.11910481e-13,0.975431691 -1.11910481e-13,1.84640746 L-1.11910481e-13,6.65508537 C-1.11910481e-13,7.52606113 0.705378912,8.23144005 1.57635468,8.23144005 L12.7541424,8.23144005 C13.6251182,8.23144005 14.3304971,7.52606113 14.3304971,6.65508537 L14.3304971,6.62323982 C14.3304971,5.75226405 13.6251182,5.04688514 12.7541424,5.04688514 L10.3498034,5.04688514 Z" id="Shape" sketch:type="MSShapeGroup"></path>
            </g>
        </g>
    </g>
</svg>