<?xml version="1.0" encoding="UTF-8" standalone="no"?>
<svg width="16px" height="16px" viewBox="0 0 16 16" version="1.1" xmlns="http://www.w3.org/2000/svg" xmlns:xlink="http://www.w3.org/1999/xlink" xmlns:sketch="http://www.bohemiancoding.com/sketch/ns">
    <!-- Generator: Sketch 3.3.2 (12043) - http://www.bohemiancoding.com/sketch -->
    <title>Shape</title>
    <desc>Created with Sketch.</desc>
    <defs></defs>
    <g id="Page-1" stroke="none" stroke-width="1" fill="none" fill-rule="evenodd" sketch:type="MSPage">
        <g id="instafunk-edit" sketch:type="MSArtboardGroup" transform="translate(-284.000000, -29.000000)" fill="#FFDE00">
            <path d="M297.6,35 L297.46,35 C297.801,34.411 298,33.73 298,33 C298,30.791 296.209,29 294,29 C291.791,29 290,30.791 290,33 C287.791,33 286,34.791 286,37 C286,37.729 286.198,38.411 286.54,39 L286.4,39 C284.975,39.638 284,41.005 284,42.463 L284,44 C284,44.351 284.554,45 284.969,45 L295.125,45 C295.54,45 296,44.351 296,44 L296,42.463 C296,41.954 295.875,41.459 295.66,41 L299.125,41 C299.54,41 300,40.351 300,40 L300,38.463 C300,37.005 299.025,35.638 297.6,35 L297.6,35 Z M294,31 C295.103,31 296,31.897 296,33 C296,34.103 295.103,35 294,35 C293.789,35 293.589,34.958 293.398,34.897 C293.072,34.371 292.628,33.928 292.102,33.602 C292.041,33.411 291.999,33.211 291.999,33 C291.999,31.897 292.896,31 293.999,31 L294,31 Z M290,35 C291.105,35 292,35.896 292,37 C292,38.104 291.104,39 290,39 C289.012,39 288.195,38.281 288.034,37.339 C288.013,37.229 288,37.117 288,37 C288,35.895 288.896,35 290,35 L290,35 Z M294,43 L286,43 L286,42.463 C286,41.92 286.356,41.356 286.898,41 L293.101,41 C293.643,41.356 293.999,41.92 293.999,42.463 L293.999,43 L294,43 Z M298,39 L293.46,39 C293.801,38.411 294,37.73 294,37 L297.102,37 C297.644,37.356 298,37.92 298,38.463 L298,39 L298,39 Z" id="Shape" sketch:type="MSShapeGroup"></path>
        </g>
    </g>
</svg>