<?xml version="1.0" encoding="UTF-8" standalone="no"?>
<svg width="24px" height="19px" viewBox="0 0 24 19" version="1.1" xmlns="http://www.w3.org/2000/svg" xmlns:xlink="http://www.w3.org/1999/xlink" xmlns:sketch="http://www.bohemiancoding.com/sketch/ns">
    <!-- Generator: Sketch 3.3.2 (12043) - http://www.bohemiancoding.com/sketch -->
    <title>icon-camera</title>
    <desc>Created with Sketch.</desc>
    <defs></defs>
    <g id="Page-1" stroke="none" stroke-width="1" fill="none" fill-rule="evenodd" sketch:type="MSPage">
        <g id="instafunk-home" sketch:type="MSArtboardGroup" transform="translate(-90.000000, -388.000000)" fill="#A6901D">
            <g id="icon-camera" sketch:type="MSLayerGroup" transform="translate(90.000000, 388.000000)">
                <path d="M22.0986842,3.12631579 L17.0460526,3.12631579 L14.8898421,0.970105263 C14.6523684,0.732631579 14.3315263,0.6 13.9967895,0.6 L9.99005263,0.6 C9.65531579,0.6 9.33321053,0.732631579 9.097,0.970105263 L6.94078947,3.12631579 L1.88815789,3.12631579 C1.19089474,3.12631579 0.625,3.69221053 0.625,4.38947368 L0.625,17.0210526 C0.625,17.7183158 1.19089474,18.2842105 1.88815789,18.2842105 L4.41447368,18.2842105 C5.11173684,18.2842105 5.67763158,17.7183158 5.67763158,17.0210526 C5.67763158,16.3237895 5.11173684,15.7578947 4.41447368,15.7578947 L3.78289474,15.7578947 C3.43426316,15.7578947 3.15131579,15.4749474 3.15131579,15.1263158 L3.15131579,6.28421053 C3.15131579,5.93557895 3.43426316,5.65263158 3.78289474,5.65263158 L7.98794737,5.65263158 L10.5142632,3.12631579 L13.4738421,3.12631579 L16.0001579,5.65263158 L20.2052105,5.65263158 C20.5538421,5.65263158 20.8367895,5.93557895 20.8367895,6.28421053 L20.8367895,15.1263158 C20.8367895,15.4749474 20.5538421,15.7578947 20.2052105,15.7578947 L19.5736316,15.7578947 C18.8763684,15.7578947 18.3104737,16.3237895 18.3104737,17.0210526 C18.3104737,17.712 18.865,18.2715789 19.5546842,18.2829474 L19.5546842,18.2842105 L22.1012105,18.2842105 C22.7984737,18.2842105 23.3643684,17.7183158 23.3643684,17.0210526 L23.3643684,4.38947368 C23.3643684,3.69221053 22.7984737,3.12631579 22.1012105,3.12631579 L22.0986842,3.12631579 Z" id="Shape" sketch:type="MSShapeGroup"></path>
                <path d="M11.9934211,9.44210526 C13.3866842,9.44210526 14.5197368,10.5751579 14.5197368,11.9684211 C14.5197368,13.3616842 13.3866842,14.4947368 11.9934211,14.4947368 C10.6001579,14.4947368 9.46710526,13.3616842 9.46710526,11.9684211 C9.46710526,10.5751579 10.6001579,9.44210526 11.9934211,9.44210526 L11.9934211,9.44210526 Z M11.9934211,6.91578947 C9.20310526,6.91578947 6.94078947,9.17810526 6.94078947,11.9684211 C6.94078947,14.7587368 9.20310526,17.0210526 11.9934211,17.0210526 C14.7837368,17.0210526 17.0460526,14.7587368 17.0460526,11.9684211 C17.0460526,9.17810526 14.7837368,6.91578947 11.9934211,6.91578947 L11.9934211,6.91578947 L11.9934211,6.91578947 Z" id="Shape" sketch:type="MSShapeGroup"></path>
            </g>
        </g>
    </g>
</svg>