<?xml version="1.0" encoding="UTF-8" standalone="no"?>
<svg width="15px" height="14px" viewBox="0 0 15 14" version="1.1" xmlns="http://www.w3.org/2000/svg" xmlns:xlink="http://www.w3.org/1999/xlink" xmlns:sketch="http://www.bohemiancoding.com/sketch/ns">
    <!-- Generator: Sketch 3.3.2 (12043) - http://www.bohemiancoding.com/sketch -->
    <title>icon-trash</title>
    <desc>Created with Sketch.</desc>
    <defs></defs>
    <g id="Page-1" stroke="none" stroke-width="1" fill="none" fill-rule="evenodd" sketch:type="MSPage">
        <g id="instafunk-edit-copy" sketch:type="MSArtboardGroup" transform="translate(-38.000000, -428.000000)" fill="#FFFFFF">
            <g id="icon-trash" sketch:type="MSLayerGroup" transform="translate(38.000000, 428.000000)">
                <path d="M13.8157895,3.94726974 L10.6578947,3.94726974 L10.6578947,1.57884868 C10.6578947,1.14305921 10.3042105,0.789375 9.86842105,0.789375 L5.13157895,0.789375 C4.69578947,0.789375 4.34210526,1.14305921 4.34210526,1.57884868 L4.34210526,3.94726974 L1.18421053,3.94726974 C0.748421053,3.94726974 0.394736842,4.30095395 0.394736842,4.73674342 L0.394736842,5.52621711 L1.97368421,5.52621711 L1.97368421,12.6314803 C1.97368421,13.0672697 2.32736842,13.4209539 2.76315789,13.4209539 L12.2368421,13.4209539 C12.6726316,13.4209539 13.0263158,13.0672697 13.0263158,12.6314803 L13.0263158,5.52621711 L14.6052632,5.52621711 L14.6052632,4.73674342 C14.6052632,4.30095395 14.2515789,3.94726974 13.8157895,3.94726974 L13.8157895,3.94726974 Z M5.92105263,2.36832237 L9.07894737,2.36832237 L9.07894737,3.94726974 L5.92105263,3.94726974 L5.92105263,2.36832237 L5.92105263,2.36832237 Z M11.4473684,11.8420066 L3.55263158,11.8420066 L3.55263158,5.52621711 L11.4473684,5.52621711 L11.4473684,11.8420066 L11.4473684,11.8420066 Z" id="Shape" sketch:type="MSShapeGroup"></path>
                <path d="M5.52631579,10.2630592 L6.31578947,10.2630592 C6.53368421,10.2630592 6.71052632,10.0862171 6.71052632,9.86832237 L6.71052632,7.49990132 C6.71052632,7.28200658 6.53368421,7.10516447 6.31578947,7.10516447 L5.52631579,7.10516447 C5.30842105,7.10516447 5.13157895,7.28200658 5.13157895,7.49990132 L5.13157895,9.86832237 C5.13157895,10.0862171 5.30842105,10.2630592 5.52631579,10.2630592 L5.52631579,10.2630592 Z" id="Shape" sketch:type="MSShapeGroup"></path>
                <path d="M8.68421053,10.2630592 L9.47368421,10.2630592 C9.69157895,10.2630592 9.86842105,10.0862171 9.86842105,9.86832237 L9.86842105,7.49990132 C9.86842105,7.28200658 9.69157895,7.10516447 9.47368421,7.10516447 L8.68421053,7.10516447 C8.46631579,7.10516447 8.28947368,7.28200658 8.28947368,7.49990132 L8.28947368,9.86832237 C8.28947368,10.0862171 8.46631579,10.2630592 8.68421053,10.2630592 L8.68421053,10.2630592 Z" id="Shape" sketch:type="MSShapeGroup"></path>
            </g>
        </g>
    </g>
</svg>