<?xml version="1.0" encoding="UTF-8" standalone="no"?>
<svg width="61px" height="62px" viewBox="0 0 61 62" version="1.1" xmlns="http://www.w3.org/2000/svg" xmlns:xlink="http://www.w3.org/1999/xlink" xmlns:sketch="http://www.bohemiancoding.com/sketch/ns">
    <!-- Generator: Sketch 3.3.2 (12043) - http://www.bohemiancoding.com/sketch -->
    <title>icon-circle-instagram</title>
    <desc>Created with Sketch.</desc>
    <defs></defs>
    <g id="Page-1" stroke="none" stroke-width="1" fill="none" fill-rule="evenodd" sketch:type="MSPage">
        <g id="instafunk-share-copy-3" sketch:type="MSArtboardGroup" transform="translate(-129.000000, -337.000000)">
            <g id="icon-circle-instagram" sketch:type="MSLayerGroup" transform="translate(129.130435, 337.000000)">
                <g id="Oval-1-+-+" fill="#824A17" sketch:type="MSShapeGroup">
                    <path d="M30.4347826,61.5217391 C47.2434489,61.5217391 60.8695652,47.7496287 60.8695652,30.7608696 C60.8695652,13.7721104 47.2434489,0 30.4347826,0 C13.6261163,0 0,13.7721104 0,30.7608696 C0,47.7496287 13.6261163,61.5217391 30.4347826,61.5217391 Z" id="Oval-1"></path>
                </g>
                <path d="M37.2610254,36.916863 L37.2610254,29.3900627 L35.7098406,29.3900627 C35.8633164,29.877725 35.9400543,30.3849632 35.9400543,30.9117773 C35.9400543,31.8875975 35.6948853,32.78784 35.2045471,33.6125047 C34.7142089,34.4371694 34.0475942,35.089616 33.2047029,35.5698445 C32.3618116,36.0500729 31.4424275,36.2901871 30.4465507,36.2901871 C28.9372899,36.2901871 27.6462295,35.7656032 26.5733696,34.7164354 C25.5005097,33.6672676 24.9640797,32.399296 24.9640797,30.9125207 C24.9640797,30.3862022 25.0408176,29.878964 25.1942935,29.3908061 L23.573971,29.3908061 L23.573971,36.9176063 C23.573971,37.1188166 23.6409022,37.2873178 23.7747645,37.42311 C23.9086268,37.5589021 24.0753418,37.6265504 24.2749094,37.6260548 L36.560087,37.6260548 C36.7518092,37.6260548 36.9165628,37.5584065 37.0543478,37.42311 C37.1921329,37.2878134 37.2610254,37.1193122 37.2610254,36.9176063 L37.2610254,36.916863 Z M33.9975797,30.7259303 C33.9975797,29.7659691 33.6509106,28.9470036 32.9575725,28.2690341 C32.2642343,27.5910645 31.4272271,27.2523275 30.4465507,27.2528231 C29.4737198,27.2528231 28.6406353,27.5915601 27.9472971,28.2690341 C27.2539589,28.946508 26.9072899,29.7654735 26.9072899,30.7259303 C26.9072899,31.6863872 27.2539589,32.5053527 27.9472971,33.1828266 C28.6406353,33.8603006 29.4737198,34.1990376 30.4465507,34.1990376 C31.4272271,34.1990376 32.2642343,33.8603006 32.9575725,33.1828266 C33.6509106,32.5053527 33.9975797,31.6863872 33.9975797,30.7259303 L33.9975797,30.7259303 Z M37.2610254,26.5443746 L37.2610254,24.6279212 C37.2610254,24.410852 37.1842874,24.2230227 37.0308116,24.0644333 C36.8773357,23.905844 36.6895362,23.8265493 36.467413,23.8265493 L34.4675688,23.8265493 C34.2454457,23.8265493 34.0576461,23.905844 33.9041703,24.0644333 C33.7506944,24.2230227 33.6739565,24.410852 33.6739565,24.6279212 L33.6739565,26.5443746 C33.6739565,26.7688777 33.7506944,26.9586894 33.9041703,27.1138096 C34.0576461,27.2689298 34.2454457,27.3464899 34.4675688,27.3464899 L36.467413,27.3464899 C36.6895362,27.3464899 36.8773357,27.2689298 37.0308116,27.1138096 C37.1842874,26.9586894 37.2610254,26.7688777 37.2610254,26.5443746 L37.2610254,26.5443746 Z M39.2608696,24.1283647 L39.2608696,37.3933745 C39.2608696,38.0207937 39.0387464,38.5590063 38.5945,39.0080125 C38.1502536,39.4570187 37.6177464,39.6815217 36.9969783,39.6815217 L23.872587,39.6815217 C23.2518188,39.6815217 22.7193116,39.4570187 22.2750652,39.0080125 C21.8308188,38.5590063 21.6086957,38.0207937 21.6086957,37.3933745 L21.6086957,24.1283647 C21.6086957,23.5009455 21.8308188,22.9627328 22.2750652,22.5137266 C22.7193116,22.0647205 23.2518188,21.8402174 23.872587,21.8402174 L36.9969783,21.8402174 C37.6177464,21.8402174 38.1502536,22.0647205 38.5945,22.5137266 C39.0387464,22.9627328 39.2608696,23.5009455 39.2608696,24.1283647 L39.2608696,24.1283647 Z" id="Shape" fill="#FFFFFF" sketch:type="MSShapeGroup"></path>
            </g>
        </g>
    </g>
</svg>