<?xml version="1.0" encoding="UTF-8" standalone="no"?>
<svg width="24px" height="24px" viewBox="0 0 24 24" version="1.1" xmlns="http://www.w3.org/2000/svg" xmlns:xlink="http://www.w3.org/1999/xlink" xmlns:sketch="http://www.bohemiancoding.com/sketch/ns">
    <!-- Generator: Sketch 3.3.2 (12043) - http://www.bohemiancoding.com/sketch -->
    <title>icon-facebook</title>
    <desc>Created with Sketch.</desc>
    <defs></defs>
    <g id="Page-1" stroke="none" stroke-width="1" fill="none" fill-rule="evenodd" sketch:type="MSPage">
        <g id="instafunk-home" sketch:type="MSArtboardGroup" transform="translate(-227.000000, -20.000000)" fill="#FFFFFF">
            <path d="M250.998001,39.5000008 C250.998001,40.7393341 250.558001,41.7993341 249.678001,42.6800008 C248.798001,43.5606674 247.738001,44.0006674 246.498001,44.0000008 L243.498001,44.0000008 L243.498001,34.5000008 L246.670001,34.5000008 L247.139001,31.0000008 L243.498001,31.0000008 L243.498001,28.7660008 C243.498001,28.2033341 243.644001,27.7710008 243.936001,27.4690008 C244.228001,27.1670008 244.728001,27.0160008 245.436001,27.0160008 L247.499001,27.0000008 L247.499001,23.7660008 C246.499001,23.6720008 245.561667,23.6250008 244.687001,23.6250008 C243.270334,23.6250008 242.135001,24.0443341 241.281001,24.8830008 C240.427001,25.7216674 240.000001,26.8960008 240.000001,28.4060008 L240.000001,31.0000008 L236.500001,31.0000008 L236.500001,34.5000008 L240.000001,34.5000008 L240.000001,44.0000008 L231.500001,44.0000008 C230.260667,44.0000008 229.200667,43.5600008 228.320001,42.6800008 C227.439334,41.8000008 226.999334,40.7400008 227.000001,39.5000008 L227.000001,24.5000008 C227.000001,23.2606674 227.440001,22.2006674 228.320001,21.3200008 C229.200001,20.4393341 230.260001,19.9993341 231.500001,20.0000008 L246.500001,20.0000008 C247.739334,20.0000008 248.799334,20.4400008 249.680001,21.3200008 C250.560667,22.2000008 251.000667,23.2600008 251.000001,24.5000008 L251.000001,39.5000008 L250.998001,39.5000008 Z" id="icon-facebook" sketch:type="MSShapeGroup"></path>
        </g>
    </g>
</svg>