<?xml version="1.0" encoding="UTF-8" standalone="no"?>
<svg width="61px" height="62px" viewBox="0 0 61 62" version="1.1" xmlns="http://www.w3.org/2000/svg" xmlns:xlink="http://www.w3.org/1999/xlink" xmlns:sketch="http://www.bohemiancoding.com/sketch/ns">
    <!-- Generator: Sketch 3.3.2 (12043) - http://www.bohemiancoding.com/sketch -->
    <title>icon-circle-twitter</title>
    <desc>Created with Sketch.</desc>
    <defs></defs>
    <g id="Page-1" stroke="none" stroke-width="1" fill="none" fill-rule="evenodd" sketch:type="MSPage">
        <g id="instafunk-share-copy-3" sketch:type="MSArtboardGroup" transform="translate(-218.000000, -336.000000)">
            <g id="icon-circle-twitter" sketch:type="MSLayerGroup" transform="translate(218.000000, 336.471739)">
                <g id="Oval-1-+-+" fill="#00BFF7" sketch:type="MSShapeGroup">
                    <path d="M30.4347826,61.5217391 C47.2434489,61.5217391 60.8695652,47.7496287 60.8695652,30.7608696 C60.8695652,13.7721104 47.2434489,0 30.4347826,0 C13.6261163,0 0,13.7721104 0,30.7608696 C0,47.7496287 13.6261163,61.5217391 30.4347826,61.5217391 Z" id="Oval-1"></path>
                </g>
                <path d="M39.6188671,25.1306722 C39.1089981,25.8842281 38.4927238,26.5263011 37.7700442,27.0568911 C37.7778359,27.1646826 37.7817317,27.3261237 37.7817317,27.5412145 C37.7817317,28.5408697 37.6370984,29.5388022 37.3478318,30.535012 C37.0585651,31.5312218 36.6190649,32.4868252 36.0293311,33.4018223 C35.4395972,34.3168193 34.7376143,35.1262398 33.9233823,35.8300837 C33.1091503,36.5339276 32.1276403,37.09528 30.9788525,37.5141409 C29.8300646,37.9330019 28.6011684,38.1426785 27.2921638,38.1431707 C25.2302868,38.1431707 23.3432359,37.5855097 21.6310112,36.4701879 C21.8973897,36.5011964 22.1942045,36.5167006 22.5214557,36.5167006 C24.2336804,36.5167006 25.7593915,35.9861106 27.0985889,34.9249306 C26.2994533,34.9096725 25.5840784,34.6616044 24.9524642,34.1807264 C24.32085,33.6998485 23.8871935,33.0865691 23.6514948,32.3408884 C23.9027769,32.3792798 24.1348233,32.3984756 24.3476339,32.3984756 C24.6748851,32.3984756 24.9982404,32.3561465 25.3176998,32.2714884 C24.4654833,32.0947891 23.759848,31.6660842 23.200794,30.9853736 C22.64174,30.3046631 22.3622129,29.5144383 22.3622129,28.6146994 L22.3622129,28.5681867 C22.8793866,28.8605526 23.4347883,29.0183022 24.028418,29.0414356 C23.5263407,28.702803 23.1267729,28.2605626 22.8297146,27.7147144 C22.5326562,27.1688663 22.3843706,26.5767515 22.3848575,25.93837 C22.3848575,25.261597 22.552379,24.6347822 22.8874218,24.0579255 C23.8083026,25.2037637 24.9288456,26.1209756 26.2490508,26.8095614 C27.5692559,27.4981471 28.9827179,27.8808314 30.4894367,27.9576144 C30.4285641,27.6652485 30.3981278,27.3807577 30.3981278,27.1041422 C30.3981278,26.0734785 30.7577631,25.1949041 31.4770339,24.4684191 C32.1963046,23.7419341 33.0655655,23.3784455 34.0848165,23.3779533 C35.1503306,23.3779533 36.0480798,23.7702355 36.7780642,24.5547999 C37.6073926,24.3933588 38.3872924,24.0933638 39.1177638,23.6548149 C38.8362888,24.5392957 38.2959835,25.2236977 37.4968479,25.7080211 C38.2044311,25.6312381 38.9120143,25.4390346 39.6195975,25.1314105 L39.6188671,25.1306722 Z" id="Shape" fill="#FFFFFF" sketch:type="MSShapeGroup"></path>
            </g>
        </g>
    </g>
</svg>