<?xml version="1.0" encoding="UTF-8" standalone="no"?>
<svg width="24px" height="24px" viewBox="0 0 24 24" version="1.1" xmlns="http://www.w3.org/2000/svg" xmlns:xlink="http://www.w3.org/1999/xlink" xmlns:sketch="http://www.bohemiancoding.com/sketch/ns">
    <!-- Generator: Sketch 3.3.2 (12043) - http://www.bohemiancoding.com/sketch -->
    <title>icon-twitter</title>
    <desc>Created with Sketch.</desc>
    <defs></defs>
    <g id="Page-1" stroke="none" stroke-width="1" fill="none" fill-rule="evenodd" sketch:type="MSPage">
        <g id="instafunk-home" sketch:type="MSArtboardGroup" transform="translate(-182.000000, -20.000000)" fill="#FFFFFF">
            <path d="M202.000001,27.5310008 C201.416667,27.7916674 200.786334,27.9686674 200.109001,28.0620008 C200.817001,27.6453341 201.301334,27.0360008 201.562001,26.2340008 C200.884667,26.6300008 200.186667,26.8956674 199.468001,27.0310008 C198.832667,26.3436674 198.035667,26.0000008 197.077001,26.0000008 C196.171001,26.0000008 195.397667,26.3203341 194.757001,26.9610008 C194.116334,27.6016674 193.796001,28.3750008 193.796001,29.2810008 C193.796001,29.5830008 193.822001,29.8330008 193.874001,30.0310008 C192.530001,29.9583341 191.269667,29.6196674 190.093001,29.0150008 C188.916334,28.4103341 187.916334,27.6030008 187.093001,26.5930008 C186.791001,27.1136674 186.640001,27.6656674 186.640001,28.2490008 C186.640001,29.4363341 187.114001,30.3476674 188.062001,30.9830008 C187.572667,30.9723341 187.051667,30.8370008 186.499001,30.5770008 L186.499001,30.6080008 C186.499001,31.3893341 186.759334,32.0846674 187.280001,32.6940008 C187.800667,33.3033341 188.441334,33.6810008 189.202001,33.8270008 C188.900001,33.9103341 188.634334,33.9520008 188.405001,33.9520008 C188.269667,33.9520008 188.066667,33.9310008 187.796001,33.8890008 C188.014667,34.5450008 188.402667,35.0866674 188.960001,35.5140008 C189.517334,35.9413341 190.150001,36.1600008 190.858001,36.1700008 C189.649334,37.1073341 188.290001,37.5760008 186.780001,37.5760008 C186.509334,37.5760008 186.249001,37.5603341 185.999001,37.5290008 C187.540334,38.5083341 189.217334,38.9980008 191.030001,38.9980008 C192.196667,38.9980008 193.290334,38.8130008 194.311001,38.4430008 C195.331667,38.0730008 196.206667,37.5783341 196.936001,36.9590008 C197.665334,36.3396674 198.293001,35.6260008 198.819001,34.8180008 C199.345001,34.0100008 199.735667,33.1663341 199.991001,32.2870008 C200.246334,31.4076674 200.374001,30.5300008 200.374001,29.6540008 C200.374001,29.4666674 200.368667,29.3260008 200.358001,29.2320008 C201.014001,28.7633341 201.561001,28.1956674 201.999001,27.5290008 L202.000001,27.5310008 Z M206.000001,24.5000008 L206.000001,39.5000008 C206.000001,40.7393341 205.560001,41.7993341 204.680001,42.6800008 C203.800001,43.5606674 202.740001,44.0006674 201.500001,44.0000008 L186.500001,44.0000008 C185.260667,44.0000008 184.200667,43.5600008 183.320001,42.6800008 C182.439334,41.8000008 181.999334,40.7400008 182.000001,39.5000008 L182.000001,24.5000008 C182.000001,23.2606674 182.440001,22.2006674 183.320001,21.3200008 C184.200001,20.4393341 185.260001,19.9993341 186.500001,20.0000008 L201.500001,20.0000008 C202.739334,20.0000008 203.799334,20.4400008 204.680001,21.3200008 C205.560667,22.2000008 206.000667,23.2600008 206.000001,24.5000008 L206.000001,24.5000008 Z" id="icon-twitter" sketch:type="MSShapeGroup"></path>
        </g>
    </g>
</svg>