<?xml version="1.0" encoding="UTF-8" standalone="no"?>
<svg width="24px" height="24px" viewBox="0 0 24 24" version="1.1" xmlns="http://www.w3.org/2000/svg" xmlns:xlink="http://www.w3.org/1999/xlink" xmlns:sketch="http://www.bohemiancoding.com/sketch/ns">
    <!-- Generator: Sketch 3.3.2 (12043) - http://www.bohemiancoding.com/sketch -->
    <title>icon-instagram</title>
    <desc>Created with Sketch.</desc>
    <defs></defs>
    <g id="Page-1" stroke="none" stroke-width="1" fill="none" fill-rule="evenodd" sketch:type="MSPage">
        <g id="instafunk-home" sketch:type="MSArtboardGroup" transform="translate(-271.000000, -20.000000)" fill="#FFFFFF">
            <path d="M292.281,40.281 L292.281,30.156 L290.172,30.156 C290.380667,30.812 290.485,31.4943333 290.485,32.203 C290.485,33.5156667 290.151667,34.7266667 289.485,35.836 C288.818333,36.9453333 287.912,37.823 286.766,38.469 C285.62,39.115 284.37,39.438 283.016,39.438 C280.964,39.438 279.208667,38.7323333 277.75,37.321 C276.291333,35.9096667 275.562,34.204 275.562,32.204 C275.562,31.496 275.666333,30.8136667 275.875,30.157 L273.672,30.157 L273.672,40.282 C273.672,40.5526667 273.763,40.7793333 273.945,40.962 C274.127,41.1446667 274.353667,41.2356667 274.625,41.235 L291.328,41.235 C291.588667,41.235 291.812667,41.144 292,40.962 C292.187333,40.78 292.281,40.5533333 292.281,40.282 L292.281,40.281 Z M287.844,31.953 C287.844,30.6616667 287.372667,29.56 286.43,28.648 C285.487333,27.736 284.349333,27.2803333 283.016,27.281 C281.693333,27.281 280.560667,27.7366667 279.618,28.648 C278.675333,29.5593333 278.204,30.661 278.204,31.953 C278.204,33.245 278.675333,34.3466667 279.618,35.258 C280.560667,36.1693333 281.693333,36.625 283.016,36.625 C284.349333,36.625 285.487333,36.1693333 286.43,35.258 C287.372667,34.3466667 287.844,33.245 287.844,31.953 L287.844,31.953 Z M292.281,26.328 L292.281,23.75 C292.281,23.458 292.176667,23.2053333 291.968,22.992 C291.759333,22.7786667 291.504,22.672 291.202,22.672 L288.483,22.672 C288.181,22.672 287.925667,22.7786667 287.717,22.992 C287.508333,23.2053333 287.404,23.458 287.404,23.75 L287.404,26.328 C287.404,26.63 287.508333,26.8853333 287.717,27.094 C287.925667,27.3026667 288.181,27.407 288.483,27.407 L291.202,27.407 C291.504,27.407 291.759333,27.3026667 291.968,27.094 C292.176667,26.8853333 292.281,26.63 292.281,26.328 L292.281,26.328 Z M295,23.078 L295,40.922 C295,41.766 294.698,42.49 294.094,43.094 C293.49,43.698 292.766,44 291.922,44 L274.078,44 C273.234,44 272.51,43.698 271.906,43.094 C271.302,42.49 271,41.766 271,40.922 L271,23.078 C271,22.234 271.302,21.51 271.906,20.906 C272.51,20.302 273.234,20 274.078,20 L291.922,20 C292.766,20 293.49,20.302 294.094,20.906 C294.698,21.51 295,22.234 295,23.078 L295,23.078 Z" id="icon-instagram" sketch:type="MSShapeGroup"></path>
        </g>
    </g>
</svg>