<?xml version="1.0" encoding="UTF-8" standalone="no"?>
<svg width="14px" height="14px" viewBox="0 0 14 14" version="1.1" xmlns="http://www.w3.org/2000/svg" xmlns:xlink="http://www.w3.org/1999/xlink" xmlns:sketch="http://www.bohemiancoding.com/sketch/ns">
    <!-- Generator: Sketch 3.3.2 (12043) - http://www.bohemiancoding.com/sketch -->
    <title>icon-flip</title>
    <desc>Created with Sketch.</desc>
    <defs></defs>
    <g id="Page-1" stroke="none" stroke-width="1" fill="none" fill-rule="evenodd" sketch:type="MSPage">
        <g id="instafunk-edit-copy" sketch:type="MSArtboardGroup" transform="translate(-186.000000, -427.000000)" fill="#FFFFFF">
            <path d="M194.994013,432.00075 L191.015013,432.00275 C191.009013,432.00275 191.003013,432.00075 190.996013,432.00075 L189.392013,432.00075 L192.709013,428.68175 C193.091013,428.29975 193.091013,427.68175 192.709013,427.29975 L192.695013,427.28575 C192.314013,426.90475 191.695013,426.90475 191.314013,427.28575 L186.399013,432.20375 C186.364013,432.22975 186.329013,432.25475 186.298013,432.28675 L186.293013,432.29175 C186.292013,432.29275 186.291013,432.29375 186.290013,432.29575 L186.285013,432.30075 C186.251013,432.33475 186.224013,432.37175 186.197013,432.40975 C186.188013,432.42075 186.177013,432.43075 186.170013,432.44275 C186.056013,432.60975 185.999013,432.80275 186.000013,432.99675 L186.000013,433.00175 L186.000013,433.00575 C185.999013,433.19975 186.056013,433.39275 186.170013,433.55975 C186.178013,433.57175 186.188013,433.58075 186.196013,433.59275 C186.224013,433.62975 186.252013,433.66775 186.285013,433.70175 L186.290013,433.70675 C186.291013,433.70775 186.292013,433.70875 186.293013,433.70975 L186.298013,433.71475 C186.329013,433.74675 186.364013,433.77175 186.399013,433.79775 L191.314013,438.71575 C191.695013,439.09675 192.314013,439.09675 192.695013,438.71575 L192.709013,438.70175 C193.091013,438.32075 193.091013,437.70175 192.709013,437.31975 L189.392013,434.00075 L190.996013,434.00075 C191.003013,434.00075 191.009013,433.99875 191.015013,433.99875 L191.015013,434.00075 L194.994013,434.00075 C196.648013,434.00075 197.993013,435.34675 197.993013,437.00175 L197.993013,439.99975 C197.993013,440.55275 198.441013,440.99975 198.993013,440.99975 C199.545013,440.99975 199.993013,440.55175 199.993013,439.99975 L199.993013,437.00175 C199.993013,434.23975 197.756013,432.00075 194.995013,432.00075 L194.994013,432.00075 Z" id="icon-flip" sketch:type="MSShapeGroup"></path>
        </g>
    </g>
</svg>