<?xml version="1.0" encoding="UTF-8" standalone="no"?>
<svg width="87px" height="33px" viewBox="0 0 87 33" version="1.1" xmlns="http://www.w3.org/2000/svg" xmlns:xlink="http://www.w3.org/1999/xlink" xmlns:sketch="http://www.bohemiancoding.com/sketch/ns">
    <!-- Generator: Sketch 3.3.2 (12043) - http://www.bohemiancoding.com/sketch -->
    <title>instafunk-watermark</title>
    <desc>Created with Sketch.</desc>
    <defs></defs>
    <g id="Page-1" stroke="none" stroke-width="1" fill="none" fill-rule="evenodd" sketch:type="MSPage">
        <g id="instafunk-watermark" sketch:type="MSLayerGroup" transform="translate(4.000000, 3.000000)">
            <g id="Page-1" sketch:type="MSShapeGroup">
                <g id="Artboard-15">
                    <g id="instafunk-watermark" transform="translate(0.000000, 0.900000)">
                        <path d="M42.6449766,24.280505 C42.0014341,24.280505 41.3852522,24.173845 40.8135311,23.9630915 C39.462035,23.4657246 38.535197,22.4045423 38.2043056,20.9757534 C38.0575278,20.3420669 38.0238971,19.7003953 38.1025587,19.0247863 C37.8668591,18.9560561 37.6360046,18.8679332 37.4122753,18.7609879 C36.7462174,19.0467457 36.0431088,19.1913357 35.3160597,19.1913357 C35.1442014,19.1913357 34.971488,19.1830653 34.8033348,19.1676652 C33.9936341,19.0918053 33.26345,18.8559553 32.6301677,18.4652486 C32.2924362,18.6432055 31.9395994,18.7889363 31.5787824,18.9001594 C30.9150045,19.1040684 30.2914124,19.2030284 29.6718104,19.2030284 C28.8698049,19.2030284 28.10086,19.0316308 27.3866362,18.6933985 C27.1611968,18.5867384 26.9471577,18.4623967 26.7476538,18.3217993 C26.134322,18.7786696 25.4451786,19.126313 24.6933341,19.3578852 C24.1432734,20.5870429 22.9499553,21.3713083 21.6050143,21.3713083 C21.2652877,21.3713083 20.9221411,21.3196894 20.5852645,21.2178775 C20.2922789,21.1297546 19.9978682,21.0430576 19.6929123,20.9529384 L17.1361278,20.1986177 C16.8656575,20.1190504 16.6424982,19.9382416 16.5082606,19.6901285 C16.373738,19.4423007 16.3438124,19.1568281 16.424469,18.8864704 L16.6809739,18.0254896 C15.9832804,18.0015339 15.3209276,17.8224362 14.7101608,17.491904 C14.5736431,17.4180404 14.4422556,17.3361916 14.3165682,17.2466428 C13.8554292,17.639631 13.274873,17.863218 12.6809215,17.8694921 C12.3822357,17.872344 11.2812594,17.8731995 10.6197616,17.8734847 C10.2672098,18.8365626 9.59089168,19.3096885 8.55831669,19.316533 L8.52525605,19.316533 C8.03248151,19.316533 4.64063084,19.2671956 3.61290095,19.2520807 C3.27659443,19.2472325 2.9599533,19.0798275 2.76700457,18.803766 C2.57348582,18.5274194 2.52389486,18.1715056 2.634477,17.8520957 L3.70951782,14.7598086 L2.73907403,13.7736305 C2.72083368,13.7548082 2.70430336,13.7368414 2.68834305,13.7185894 C1.7977008,12.6822183 1.22597973,11.6082025 0.937839157,10.4323748 C0.688174323,9.41454098 0.665943893,8.41581468 0.87086286,7.46385911 C1.29523608,5.4957808 2.46974381,3.95633917 4.26841364,3.01151328 C5.25994783,2.49076107 6.35123396,2.22667753 7.51149142,2.22667753 C7.80362208,2.22667753 8.10401789,2.24407396 8.40441371,2.27772608 C8.94706422,2.33904137 9.42786852,2.46138677 9.85224174,2.5694728 C9.97336908,2.60027304 10.0933564,2.63107328 10.2136287,2.65930683 C10.6009512,2.66016239 13.791588,2.66016239 13.791588,2.66016239 C14.1224794,2.66016239 14.4274353,2.81102653 14.6283642,3.07396932 C14.8292931,3.33691211 14.8948444,3.67115176 14.8082027,3.99056165 L14.4593559,5.27647168 L15.028512,5.27647168 C15.2006553,5.27647168 15.3482881,5.29500886 15.4526002,5.31269048 C15.8903686,5.18378577 16.3332672,5.11876304 16.7721757,5.11876304 C17.3188163,5.11876304 17.8520616,5.21800826 18.3613665,5.41364683 C18.8071151,4.84612388 19.3466306,4.35788304 19.9679426,3.95890585 C20.350135,3.71364468 20.7528478,3.50745418 21.1666758,3.34489736 C21.3658946,2.8592232 21.7640474,1.92922706 22.0006019,1.37967093 C22.1676152,0.992101238 22.5469575,0.74199188 22.9673406,0.74199188 C23.0653825,0.74199188 23.1631394,0.755680876 23.2574763,0.78277368 C24.0666069,1.01434586 26.3167255,1.6588694 26.4270226,1.68995483 C27.3587057,1.95289762 28.1142553,2.55549861 28.5540188,3.3871051 C28.7637829,3.78294522 28.8928904,4.22156346 28.9330761,4.67044844 C29.4517862,4.53270292 32.7632653,3.64776639 34.1349969,3.28130057 C34.2247736,3.25705964 34.3168304,3.24508177 34.4086022,3.24508177 C34.7397786,3.24508177 35.0558497,3.4050719 35.2539285,3.67343326 C35.4542874,3.94521686 35.5121435,4.28658619 35.4126766,4.61027389 L34.8492207,6.4403215 L35.5526143,6.4403215 C37.0474682,6.31227235 37.1050394,6.31227235 37.139525,6.31227235 C37.6502549,6.32624653 38.1262141,6.41037682 38.5713927,6.56323727 C38.8304628,6.48652186 39.1074881,6.44802156 39.3970537,6.44802156 L41.8811618,6.44830674 C41.9965891,6.16711196 42.1208515,5.90958773 42.2582241,5.66717843 C43.0026585,4.3518941 44.0355185,3.48292807 45.3277335,3.08423607 C45.8219331,2.93194599 46.330098,2.85466021 46.8379778,2.85466021 C48.8988527,2.85466021 50.6439415,4.12459974 51.2837789,6.09011136 C51.3225396,6.20960488 51.3573103,6.33109472 51.3872359,6.45401049 L53.2486069,6.45857349 C53.4301554,6.45885868 53.6077138,6.50648498 53.7653219,6.59688938 C54.0261019,6.50534423 54.2965722,6.45771793 54.5713175,6.45486605 C54.9697552,6.45115862 56.6743732,6.45087343 57.0522905,6.45087343 L57.126962,6.45087343 C57.2022034,6.45087343 57.3732067,6.45087343 58.1056709,6.61713769 C58.3864014,6.51076279 58.676537,6.4560068 58.9698077,6.45429568 L59.0789648,6.45401049 C59.6170552,6.45401049 61.7716969,6.45971424 62.0299119,6.46028462 C62.4303447,6.35162821 62.8367625,6.29658704 63.2409003,6.29658704 C63.9633893,6.29658704 64.669633,6.46941061 65.340251,6.81020957 C65.4488381,6.86525074 65.5548601,6.92542528 65.6577471,6.99044801 C65.7144632,6.79851688 65.7663342,6.61400063 65.8190603,6.42691769 C65.8709313,6.24183106 65.9236573,6.05446293 65.9820834,5.85540212 C66.3312152,4.66645581 67.3523899,3.89873131 68.5836138,3.89873131 L73.0000593,3.95377248 C73.3303807,3.95805029 73.6436017,4.11975155 73.8382605,4.38697215 C74.0329193,4.65390757 74.0913454,5.00212139 73.9938735,5.31810904 L73.6219413,6.52958516 C73.6934777,6.55211496 73.7644441,6.57635589 73.8351254,6.60230795 C75.412631,7.1786717 76.4571762,8.53217114 76.6410048,10.1950989 C76.8541889,10.3006183 77.068228,10.4075635 77.2797021,10.5190718 C78.5231812,11.1730065 78.9957204,12.6380143 78.3775434,13.926491 C77.9870858,14.7401307 77.5399122,15.6085263 76.9200252,16.444981 C76.3388989,17.2283908 75.5006977,18.2005947 74.1623118,18.7712547 C73.500529,19.0535902 72.8236409,19.1970395 72.1507428,19.1970395 C71.22875,19.1970395 70.3415278,18.9152743 69.5885432,18.3919554 C69.1222742,18.8011994 68.5217676,19.0413272 67.9072957,19.0453198 C67.6747312,19.0467457 66.8636055,19.0470309 66.2112278,19.0470309 L65.3254307,19.0467457 C65.1490123,19.0467457 64.9720239,19.027353 64.7981705,18.9891379 C64.3193612,19.1220352 63.8240216,19.1896246 63.3226969,19.1896246 C63.1625238,19.1896246 62.9983606,19.1824949 62.8344825,19.1685207 C62.088053,19.1046388 61.3949196,18.8468293 60.8098033,18.4184779 C60.3478093,18.812892 59.7658281,19.0373345 59.1667465,19.0436087 C58.6970574,19.0481717 58.2279383,19.0495976 57.7591042,19.0495976 L56.609962,19.0481717 C56.4312635,19.0481717 56.2548451,19.0287789 56.0744366,18.989423 C55.6021825,19.1246019 55.1205231,19.1927617 54.6397188,19.1927617 C54.2421361,19.1927617 53.8411334,19.1457057 53.4478257,19.053305 C53.1850507,18.990849 52.9313958,18.9038668 52.6919911,18.7929289 C52.0393285,19.063857 51.3652904,19.2013173 50.6858373,19.2013173 C50.0251945,19.2013173 49.3679718,19.0709866 48.7321245,18.8137476 C48.6714183,19.0969387 48.604157,19.3359258 48.551716,19.5133123 C48.1843438,20.7524516 47.6399833,21.7389149 46.8872837,22.5291692 C45.9906564,23.4702876 44.8637446,24.0383809 43.5381839,24.218049 C43.2266729,24.2599716 42.9342572,24.280505 42.6449766,24.280505" id="Fill-1" fill="#1A1918"></path>
                        <path d="M22.9676257,1.4549604 C22.9984062,1.4549604 23.0300419,1.45923821 23.0611075,1.46807902 C23.8713781,1.69993639 26.1229217,2.34474512 26.2335039,2.37611573 C26.9765133,2.58572848 27.5764499,3.0631322 27.9241566,3.72048918 C28.1296456,4.10862924 28.2339576,4.53555479 28.2342426,4.97160634 C28.2342426,5.069996 28.2732884,5.16296709 28.3462498,5.22941576 C28.3955557,5.27390499 28.4437217,5.31953498 28.4913176,5.36573534 C28.5577239,5.43075807 28.6446506,5.4664065 28.7332873,5.4664065 C28.7737581,5.4664065 28.8145138,5.45870644 28.8541296,5.44330632 C28.9302261,5.41336164 29.0091726,5.38769477 29.0903992,5.36602053 C29.5170525,5.2533715 32.9225834,4.34305329 34.3191104,3.97002816 C34.349321,3.96175773 34.3795316,3.95805029 34.4086022,3.95805029 C34.6283414,3.95805029 34.8013398,4.17422235 34.7317984,4.40037596 L34.0198546,6.71153472 C33.9523083,6.93084384 34.1161865,7.15329002 34.3459009,7.15329002 L35.5680046,7.15329002 C35.5776948,7.15329002 35.5862449,7.15271964 35.5959351,7.15214927 C35.744993,7.13931584 37.0805289,7.02524087 37.139525,7.02524087 L37.14038,7.02524087 C37.602659,7.03807431 38.0404275,7.12277497 38.4439953,7.27477986 C38.483041,7.2896096 38.5232268,7.2964541 38.5636976,7.2964541 C38.6044534,7.2964541 38.6452092,7.28932441 38.6848249,7.27535023 C38.9002891,7.20006075 39.1388387,7.16099008 39.3970537,7.16099008 L42.1353867,7.16127527 C42.2784595,7.16127527 42.4044319,7.07087086 42.4548779,6.93683278 C42.5683101,6.6351045 42.7039727,6.32624653 42.8781111,6.01881451 C43.5299187,4.86694256 44.4248361,4.10862924 45.5374976,3.76554879 C45.9638659,3.63407739 46.4013493,3.56762873 46.8379778,3.56762873 C48.5844916,3.56762873 50.0636702,4.6442112 50.6063207,6.31084641 C50.6667419,6.49621823 50.7143378,6.68501229 50.7491085,6.87637305 C50.7793191,7.04149655 50.9146967,7.16555308 51.082565,7.16612345 C51.652576,7.1672642 52.8869349,7.17068645 53.2466119,7.17154201 C53.3130181,7.1718272 53.3762894,7.19150513 53.4318654,7.22800912 L53.5475777,7.30443935 C53.5997337,7.33894702 53.6590148,7.3552027 53.718866,7.3552027 C53.768172,7.3552027 53.8177629,7.34436558 53.8642188,7.32383209 C54.0879481,7.22544243 54.3302028,7.17040126 54.5787276,7.16783458 C54.9737453,7.16412714 56.6589829,7.16384195 57.0468754,7.16384195 L57.126962,7.16384195 C57.2922652,7.16384195 57.8292156,7.28447623 58.0634901,7.33923221 C58.0871456,7.34465077 58.111086,7.34721746 58.1347415,7.34721746 C58.1840474,7.34721746 58.2327834,7.33609515 58.2792393,7.31613203 C58.4981235,7.22144981 58.7341081,7.16869014 58.9740827,7.1672642 C58.9931781,7.1672642 59.0288038,7.16697901 59.0778247,7.16697901 C59.6475508,7.16697901 62.0535674,7.17325314 62.0535674,7.17325314 L62.0783628,7.18836807 C62.4631203,7.06944492 62.8518678,7.00955557 63.2409003,7.00955557 C63.8502421,7.00955557 64.4478987,7.15614189 65.0173397,7.44560711 C65.2122835,7.54485233 65.4263227,7.67832004 65.6383668,7.85713254 C65.705058,7.91331446 65.7840046,7.93955171 65.8618111,7.93955171 C66.0031738,7.93955171 66.1399765,7.85228436 66.1867174,7.70027947 L66.2628138,7.4527368 C66.4132968,6.96449595 66.5221689,6.54612603 66.6658117,6.05617406 C66.9274467,5.1649634 67.6621909,4.61169983 68.5836138,4.61169983 L72.9912241,4.666741 C73.2189435,4.66959288 73.3799716,4.89061312 73.3129953,5.10821111 L72.8279159,6.68729379 C72.7706298,6.87409155 72.880072,7.07258198 73.0701706,7.11678603 C73.244879,7.15728264 73.4187324,7.20918675 73.5908757,7.27192798 C75.0375637,7.80066544 75.9333361,9.11766089 75.9572765,10.6625211 C76.0182677,10.6859065 76.0786889,10.7121437 76.138255,10.7418032 L76.1676106,10.7563477 C76.4286757,10.8849673 76.6900257,11.0141572 76.9476707,11.1499064 C77.8445831,11.6216063 78.1837396,12.6827887 77.735141,13.6179182 C77.3597887,14.3999021 76.9319954,15.2317938 76.3477341,16.0200517 C75.8204739,16.731024 75.0643542,17.6116827 73.8830064,18.1153236 C73.3095753,18.3600144 72.726739,18.484071 72.1507428,18.484071 C72.1507428,18.484071 72.1507428,18.484071 72.1504578,18.484071 C71.1475234,18.484071 70.2212555,18.0979272 69.5004765,17.3992181 C69.4896463,17.4171849 69.4782461,17.4354369 69.4665609,17.4536889 C69.1188541,17.9915523 68.5192025,18.3286438 67.9027356,18.3323513 C67.6804313,18.333492 66.9243117,18.3337772 66.2881793,18.3337772 L65.3257157,18.3337772 C65.1495823,18.3337772 64.9965343,18.3066844 64.873697,18.2738878 C64.8457664,18.2661878 64.8169809,18.2621952 64.7881953,18.2621952 C64.7591247,18.2621952 64.7297692,18.266473 64.7015536,18.2750286 C64.255235,18.4090667 63.7946661,18.4766561 63.3226969,18.4766561 C63.1819042,18.4766561 63.0391164,18.4706672 62.8943336,18.4581189 C62.1704196,18.3962332 61.520037,18.1130421 61.0104472,17.667009 C60.9448959,17.6094012 60.8628143,17.5803121 60.7818727,17.5803121 C60.692096,17.5803121 60.6031743,17.6159605 60.538763,17.6883981 C60.1902013,18.0799604 59.6885916,18.3252216 59.1593363,18.3306401 C58.6924973,18.3352031 58.2259433,18.3363439 57.7591042,18.3363439 L56.610817,18.3352031 C56.3999129,18.3352031 56.2317596,18.296988 56.1211775,18.2670433 L56.0513512,18.2510728 C55.5870772,18.4030777 55.114538,18.4800783 54.6397188,18.4800783 C54.2965722,18.4800783 53.9505755,18.4392965 53.6111339,18.3594441 C53.3452238,18.2964176 53.0947039,18.2034466 52.8624244,18.0828123 C52.8114084,18.0562898 52.7561174,18.042886 52.7008263,18.042886 C52.6532304,18.042886 52.6053494,18.0528676 52.5603186,18.0731159 C51.9501218,18.3488921 51.3216846,18.4883488 50.6858373,18.4883488 C50.1118362,18.4883488 49.5392601,18.3731331 48.9837843,18.1464091 C48.8561019,18.0942198 48.7326945,18.0349008 48.6144172,17.9684521 C48.5619762,17.9390778 48.5061151,17.925674 48.451394,17.925674 C48.2920759,17.925674 48.142163,18.039749 48.1170825,18.2122874 C48.0555214,18.636361 47.9580495,19.0088158 47.8685577,19.3102589 C47.5342463,20.4387455 47.0446068,21.3305265 46.3714238,22.0369357 C45.5896536,22.8577051 44.6041045,23.3539312 43.4427071,23.5116398 C43.1628316,23.5492845 42.9020516,23.5678217 42.6449766,23.5678217 C42.0860808,23.5678217 41.5525505,23.4757062 41.0597759,23.294327 C39.9408443,22.8822312 39.1733244,22.0018576 38.8982941,20.8149077 C38.7486662,20.1678174 38.7332759,19.5101753 38.8555432,18.7932141 C38.8857538,18.6161127 38.7657665,18.4478522 38.5899181,18.4116334 C38.2157059,18.3346328 37.8557439,18.2008799 37.5137373,18.0112302 C37.4860917,17.9961153 37.4590162,17.98043 37.4319407,17.9641743 C36.7658828,18.306114 36.0576441,18.4783672 35.3160597,18.4783672 C35.1687119,18.4783672 35.018514,18.4715227 34.8697411,18.4575485 C34.0968061,18.3853961 33.4139329,18.1452683 32.8459169,17.7551319 C32.7852107,17.7134946 32.7153844,17.6921055 32.645273,17.6921055 C32.5862769,17.6921055 32.5267107,17.7072205 32.4728447,17.7383059 C32.1191528,17.9413593 31.7523507,18.1007791 31.3693033,18.2185615 C30.7750668,18.4010814 30.2198761,18.4900599 29.6718104,18.4900599 C28.976397,18.4900599 28.3097691,18.3417624 27.6913071,18.0491602 C27.4222619,17.9219666 27.1765871,17.7665394 26.9565629,17.5851602 C26.8958567,17.5352525 26.8228953,17.5110115 26.7490789,17.5110115 C26.6698473,17.5110115 26.5900458,17.5389599 26.5244945,17.5922899 C25.8889322,18.1104755 25.1487729,18.4920562 24.327102,18.7222024 C24.2210799,18.7518619 24.1381433,18.8305737 24.0982425,18.9335263 C23.6943897,19.9750307 22.7216659,20.6583398 21.6050143,20.6583398 C21.334829,20.6583398 21.0612237,20.6169876 20.7910385,20.535424 C20.4835176,20.4427381 20.1751416,20.3517633 19.8547954,20.2576515 L17.3376267,19.5147383 C17.1566482,19.4614082 17.0534762,19.270903 17.1073422,19.089809 L17.4915296,17.8007619 C17.3313565,17.5925751 17.2709354,17.5144338 17.1107623,17.306247 C17.0207005,17.3122359 16.9312088,17.3150878 16.8422871,17.3150878 C16.2050147,17.3150878 15.601658,17.1636533 15.0490323,16.8644917 C14.878599,16.7726613 14.6956255,16.6528826 14.514932,16.4985962 C14.4496657,16.4429847 14.3712892,16.4158919 14.2929127,16.4158919 C14.1971509,16.4158919 14.101389,16.4563885 14.0307076,16.5339595 C13.6830009,16.9146846 13.1910814,17.1513902 12.6737964,17.1565236 C12.3312197,17.1599458 10.9309876,17.160231 10.3561315,17.160231 L10.1078917,17.160231 C10.1047566,17.160231 10.1021916,17.1596606 10.0990565,17.1596606 C10.0648559,17.2703133 10.0315102,17.3812513 9.99673954,17.4916188 C9.76046996,18.2530692 9.34236687,18.5981459 8.5537566,18.6035645 L8.52639607,18.6035645 C8.05613697,18.6035645 4.8452648,18.5570789 3.62344615,18.5391121 C3.39088165,18.5356899 3.23127856,18.3058288 3.30766004,18.0859493 L4.45822731,14.7757791 C4.50097814,14.6528633 4.47019754,14.5168289 4.37928078,14.424143 L3.24666886,13.2731266 C3.23982872,13.2662821 3.23270359,13.2585821 3.22643346,13.2511672 C2.41302772,12.3046302 1.8906126,11.3267226 1.62983255,10.2626883 C1.40610322,9.35037382 1.38529782,8.45944835 1.56741635,7.61386768 C1.94561867,5.85939475 2.99415397,4.48621737 4.59930504,3.6429182 C5.48795225,3.1763516 6.46780122,2.93964605 7.51149142,2.93964605 C7.77740157,2.93964605 8.05100687,2.95533136 8.32432716,2.98641679 C8.81909674,3.04231352 9.27482056,3.15809961 9.67724835,3.26048189 C9.81576103,3.29584513 9.95427371,3.33120837 10.0930714,3.36343454 C10.1187219,3.36913829 10.1429474,3.37199016 10.1691679,3.37227535 C10.5080394,3.37313091 11.7740339,3.37313091 11.7740339,3.37313091 L13.791588,3.37313091 C14.0161724,3.37313091 14.1794805,3.58702147 14.1207694,3.8037639 L13.6023443,5.71337879 C13.5769789,5.80977214 13.5510433,5.89875061 13.5256779,5.98972539 C13.6408201,5.9894402 15.028512,5.9894402 15.028512,5.9894402 C15.2214607,5.9894402 15.3708036,6.02138119 15.4346448,6.03507019 L15.495636,6.0461925 C15.9197242,5.90388398 16.3475175,5.83173157 16.7721757,5.83173157 C17.3202413,5.83173157 17.8497816,5.94979915 18.3505363,6.18365283 C18.3930021,6.20333076 18.4374629,6.21274194 18.4816388,6.21274194 C18.5916509,6.21274194 18.699383,6.15513409 18.7672143,6.06016668 C19.1801873,5.48266218 19.7114376,4.97075078 20.352415,4.55922535 C20.7400225,4.31054193 21.1450154,4.10919962 21.5645435,3.95633917 C21.6557453,3.92325743 21.7292767,3.85538282 21.7651874,3.7652636 C21.9307756,3.34888998 22.4261152,2.19416617 22.6552596,1.66143609 C22.7102657,1.53367213 22.8345281,1.4549604 22.9676257,1.4549604 M22.9676257,0.0290233582 C22.261952,0.0290233582 21.6258197,0.448248849 21.3462293,1.09762058 C21.1484354,1.55791306 20.8366394,2.28457057 20.6211752,2.80018941 C20.2640633,2.95789805 19.9166416,3.14498099 19.5831851,3.35887154 C19.0391096,3.70794093 18.5517502,4.11946636 18.1270919,4.58717371 C17.6870434,4.46653944 17.2338846,4.40579452 16.7721757,4.40579452 C16.3167369,4.40579452 15.858448,4.46625425 15.4052892,4.58574778 C15.3987341,4.58489221 15.392179,4.58403665 15.3856239,4.58346628 L15.495921,4.1776446 C15.6412738,3.64206264 15.5312617,3.08195457 15.1943852,2.64105484 C14.8575086,2.2001551 14.3462087,1.94719387 13.791588,1.94719387 L11.7740339,1.94719387 C11.7737489,1.94719387 10.7482991,1.94719387 10.2982754,1.9466235 C10.2127737,1.92580481 10.1272721,1.90384538 10.0414854,1.88188595 L10.0409154,1.88188595 L10.0278051,1.8784637 C9.60343192,1.77037768 9.0753167,1.63605441 8.48393025,1.56932055 C8.15759893,1.53253138 7.8304126,1.51370901 7.51149142,1.51370901 C6.2346667,1.51370901 5.03222842,1.80545573 3.93723722,2.38039354 C1.94561867,3.42617577 0.644568479,5.13216685 0.17459438,7.31328016 C-0.0536950395,8.372181 -0.029754576,9.47870815 0.24584576,10.6023465 C0.561346868,11.8893973 1.1826589,13.0600916 2.14569254,14.180593 C2.17219805,14.2116784 2.20126862,14.2433342 2.23062418,14.2732789 L2.89098197,14.9440397 L1.96186398,17.6176716 C1.77604038,18.152398 1.85869198,18.7487249 2.18302826,19.2121544 C2.50679453,19.6752988 3.03747481,19.9567787 3.60264075,19.9650492 C4.92478134,19.9844419 8.05129187,20.0295015 8.52639607,20.0295015 L8.56316178,20.0295015 C9.39908297,20.0237978 10.4547434,19.7508734 11.0803305,18.5858829 C11.7079127,18.5855977 12.447217,18.5847421 12.6874766,18.5824606 C13.2714529,18.5764717 13.843744,18.4076407 14.3436437,18.1039161 C14.3530489,18.1090495 14.3624541,18.1141829 14.3718592,18.1193163 C14.8121928,18.3574478 15.2756117,18.5279898 15.7575561,18.6295165 L15.7415958,18.6825614 C15.6065031,19.1357242 15.6563791,19.6142687 15.8818185,20.0300719 C16.1072578,20.4458751 16.4811851,20.7487442 16.9346289,20.8824971 L19.4517976,21.6254103 C19.7701488,21.7189517 20.0753897,21.8087858 20.3800606,21.9006161 C20.7833434,22.0223911 21.1957463,22.0842768 21.6050143,22.0842768 C23.1243787,22.0842768 24.483855,21.2586593 25.1992189,19.9413786 C25.7561196,19.7454549 26.2805298,19.4893566 26.7670342,19.1756504 C26.8699212,19.2332583 26.9750882,19.2877291 27.0825353,19.3384924 C27.892806,19.7214991 28.7640679,19.9159969 29.6718104,19.9159969 C30.3635188,19.9159969 31.0555122,19.806485 31.7876914,19.5817573 C32.0661418,19.4959159 32.3400321,19.3918225 32.6067973,19.2703326 C33.2474897,19.60115 33.9614285,19.8047739 34.7374985,19.8772115 C34.9290222,19.8951783 35.123966,19.9043043 35.3160597,19.9043043 C36.0168883,19.9043043 36.6983365,19.7856663 37.3507141,19.5512422 C37.3364638,20.0908168 37.3894749,20.6152765 37.5100322,21.1368842 C37.8916546,22.7832711 39.0060262,24.0574885 40.5675714,24.6324263 C41.218809,24.8722689 41.9176425,24.9937588 42.6449766,24.9937588 C42.9667478,24.9937588 43.2899441,24.971229 43.6336607,24.9244582 C45.1239546,24.7225455 46.3922292,24.0820146 47.4031437,23.0205471 C48.2327948,22.1498699 48.8310214,21.0727171 49.2311691,19.7280584 C49.7099784,19.8518298 50.1967678,19.9142858 50.6858373,19.9142858 C51.3613004,19.9142858 52.0304933,19.795933 52.6808759,19.5617942 C52.8761047,19.6362281 53.0773186,19.6983989 53.2833776,19.747166 C53.7308362,19.8526853 54.1868451,19.9060154 54.6397188,19.9060154 C55.1299283,19.9060154 55.6207078,19.8435593 56.1032222,19.7203584 C56.2725154,19.7477364 56.4406687,19.7611402 56.610817,19.7611402 L57.7573942,19.7622809 C58.2305033,19.7622809 58.7021875,19.7611402 59.1738716,19.756292 C59.7589879,19.7505882 60.330994,19.5826129 60.8303237,19.280029 C61.41772,19.614839 62.0760828,19.8193184 62.7729213,19.8789226 C62.9567498,19.8946079 63.1417184,19.9025931 63.3226969,19.9025931 C63.8308618,19.9025931 64.3347515,19.8409927 64.823821,19.7195028 C64.9899792,19.7463104 65.1578475,19.7597142 65.3257157,19.7597142 L66.2881793,19.7597142 C66.9274467,19.7597142 67.6878414,19.7594291 67.9112858,19.7582883 C68.5160675,19.7545809 69.109449,19.5729165 69.6213189,19.2520807 C70.3908338,19.6815729 71.2563955,19.910008 72.1504578,19.910008 C72.9199727,19.910008 73.6909127,19.7474512 74.4419022,19.4269005 C75.9544265,18.7818066 76.9071999,17.6584534 77.4920312,16.869625 C78.1481139,15.9849737 78.614098,15.0806444 79.0196608,14.2350638 C79.7945908,12.6197623 79.1755588,10.7104326 77.6105935,9.8876669 C77.5034315,9.83119979 77.3951294,9.77558824 77.2879673,9.72140264 C76.9827264,8.13148283 75.9592716,6.7936687 74.4971933,6.10636704 L74.6750367,5.5274366 C74.8377749,4.99784358 74.740303,4.41463533 74.4139717,3.9668911 C74.0879253,3.51943206 73.5626602,3.24793364 73.0091795,3.24108914 L68.6015691,3.18576279 L68.5836138,3.18576279 C67.0283387,3.18576279 65.7389737,4.15454441 65.2986402,5.654345 C65.2672896,5.76157546 65.237364,5.86566887 65.2082934,5.96776596 C64.5741562,5.71252323 63.9143684,5.58361852 63.2409003,5.58361852 C62.8062669,5.58361852 62.3696385,5.6383745 61.9392801,5.74703091 C61.4490707,5.74589016 59.5723093,5.74104197 59.0778247,5.74104197 L58.9663876,5.74132716 C58.6608617,5.74303828 58.3593258,5.78895346 58.0657702,5.87793193 C57.4196626,5.73790491 57.2401092,5.73790491 57.126962,5.73790491 L57.0468754,5.73790491 C56.5643611,5.73790491 54.95921,5.7381901 54.5650474,5.74189753 C54.3096824,5.74446422 54.0577376,5.77697558 53.8117778,5.83914644 C53.6319393,5.77783115 53.4424106,5.74617534 53.2500319,5.74560497 L51.9182011,5.74218272 C51.1484012,3.5502323 49.1684679,2.14169168 46.8379778,2.14169168 C46.2588466,2.14169168 45.6802854,2.22952941 45.1179695,2.40292335 C43.645916,2.85665652 42.4751133,3.83684564 41.6380521,5.31611273 C41.5613856,5.45157675 41.4884242,5.59074821 41.4188829,5.73533822 L39.3973387,5.73505303 C39.1197434,5.73505303 38.8504131,5.76385696 38.5927682,5.82146482 C38.1473045,5.68942305 37.6798955,5.61527432 37.1985212,5.60044458 L37.1780008,5.59930383 L37.139525,5.59930383 C37.0719787,5.59930383 37.0252378,5.59930383 35.8219445,5.70168611 L36.0935548,4.82045701 C36.258003,4.286301 36.158536,3.69938531 35.8270746,3.25021514 C35.4953282,2.80075979 34.9652179,2.53211325 34.4088872,2.53211325 C34.2546992,2.53211325 34.1007962,2.55236155 33.9511683,2.59228779 C32.8923728,2.87547889 30.6770249,3.46724276 29.4839918,3.7857971 C29.4076103,3.53226549 29.3070034,3.28643394 29.183026,3.05258027 C28.6517757,2.04815021 27.7414681,1.32006676 26.6202564,1.00350873 C26.5099592,0.972423307 24.2621207,0.328755325 23.4532751,0.0971831489 C23.295097,0.0518383509 23.1317888,0.0290233582 22.9676257,0.0290233582" id="Fill-2" fill="#FFFFFF"></path>
                        <path d="M48.5824966,15.0946186 C47.9577645,15.702353 47.2321404,16.1110265 46.3403581,16.2125532 C46.3685737,16.353721 46.3933692,16.4706479 46.4147446,16.5881451 C46.5418571,17.2928432 46.4272848,17.9775781 46.227781,18.6511908 C46.0046216,19.4035152 45.6822804,20.1065021 45.1325048,20.6834363 C44.6080946,21.233848 43.9634121,21.54128 43.2115676,21.6433771 C42.6791773,21.7155295 42.1570472,21.7029812 41.6488823,21.5158983 C41.0557858,21.2974447 40.703234,20.8622488 40.5627263,20.2562255 C40.4005582,19.5560904 40.5060102,18.8704999 40.7123542,18.1954613 C40.9380786,17.4582519 41.168078,16.7227535 41.3949424,15.9861144 C41.4060576,15.9498956 41.4023525,15.9091138 41.4037776,15.8902915 C41.0688961,16.063115 40.7459848,16.2738685 40.393148,16.4027733 C39.7097048,16.6525974 39.0128663,16.7144831 38.3405383,16.3417431 C38.0888784,16.2025717 37.913315,15.9889663 37.7890526,15.7314421 C37.757417,15.665849 37.7229313,15.6013966 37.6784705,15.5149848 C37.5413828,15.6333376 37.4222505,15.7408533 37.2979881,15.8418096 C36.6362053,16.3796731 35.8889208,16.6617234 35.0270641,16.5813006 C34.0831258,16.4931777 33.3888524,16.0474297 33.0137851,15.153082 C32.9938348,15.1054557 32.9690393,15.0601109 32.9342686,14.9888141 C32.8818276,15.0372959 32.8359417,15.0746555 32.7957559,15.1177188 C32.2542454,15.7012122 31.6337884,16.1743381 30.8654136,16.4104733 C30.0460227,16.6622938 29.2192217,16.7073534 28.4203512,16.3294801 C27.8885309,16.07823 27.5764499,15.6327672 27.4319521,15.0712332 C27.2267481,14.2732789 27.3461654,13.4918654 27.5764499,12.7195779 C27.7599934,12.1030027 27.9495221,11.4884238 28.1350607,10.8727042 C28.1427558,10.8473225 28.1362007,10.8173778 28.1362007,10.7654737 L27.3900563,10.7654737 C27.4513325,10.5475906 27.5012084,10.3599372 27.5570695,10.1739951 C27.6938722,9.71883595 27.8301048,9.26367684 27.9760276,8.8116548 C27.9914179,8.7640285 28.0677994,8.71012808 28.1202404,8.70556509 C28.2818385,8.6915909 28.4468567,8.68617234 28.6075998,8.70385396 C28.773188,8.72239114 28.8296191,8.64168311 28.8698049,8.50336721 C29.0077476,8.03052649 29.1556655,7.56053764 29.2930381,7.08741173 C29.3298038,6.96050333 29.3853799,6.88492867 29.5253176,6.84813949 C30.2979676,6.64366012 31.0671975,6.42691769 31.8378524,6.21530863 C32.0025856,6.16996383 32.1684588,6.12832647 32.3719527,6.07471124 C32.0986324,6.96278483 31.8372824,7.81093218 31.5659571,8.69187609 L33.3461016,8.69187609 C33.2902405,8.89949252 33.2466347,9.07545315 33.1947637,9.24913229 C33.0605261,9.69887283 32.9197333,10.1466171 32.7874908,10.596928 C32.7527201,10.7149956 32.695149,10.7668997 32.5663265,10.7651886 C32.0838121,10.7591996 31.6010128,10.7686108 31.1187835,10.7591996 C30.9836908,10.7566329 30.9221297,10.8005518 30.8845089,10.9257491 C30.6784499,11.6141915 30.4629858,12.3000672 30.2589218,12.98908 C30.1688601,13.2936601 30.0568529,13.6002366 30.0274973,13.912802 C29.9685012,14.5442069 30.373494,14.8279684 30.9797008,14.6177853 C31.4371346,14.4595062 31.8016567,14.1651928 32.1242829,13.8178346 C32.3172317,13.6096478 32.4825349,13.3760793 32.6689285,13.1616183 C32.8043061,13.005906 32.8618772,12.8225305 32.902918,12.6280327 C33.1542929,11.4433642 33.6952333,10.4141229 34.5816005,9.58451268 C35.2838541,8.92744089 36.1083751,8.53644895 37.0922141,8.56325657 C37.8312334,8.58350487 38.4209098,8.89036653 38.8330278,9.51549733 C38.8546882,9.54886425 38.8797687,9.58023487 38.9270796,9.64497241 C38.996051,9.43593004 39.0561871,9.25198416 39.1171783,9.06775309 C39.254836,8.65280541 39.1271535,8.70185765 39.5985526,8.70043171 C40.3079314,8.6984354 41.0173101,8.70014652 41.7264038,8.70014652 L41.9686585,8.70014652 C41.9316078,8.84587729 41.9065273,8.96679675 41.8703316,9.08429396 C41.5779159,10.0371051 41.2823652,10.9887755 40.9899496,11.9415866 C40.7759104,12.6394402 40.5638663,13.3381494 40.3546723,14.0374289 C40.3233217,14.142663 40.3013762,14.2527454 40.2922561,14.3619722 C40.2725907,14.5938295 40.4005582,14.7218787 40.6191574,14.6531485 C40.7898757,14.5992481 40.961164,14.5037103 41.0954016,14.3850723 C41.5616706,13.9712654 41.8643465,13.431976 42.1932429,12.9112238 C42.5657451,12.3217414 42.7139479,11.6521214 42.9180119,11.0018941 C43.1938972,10.1226613 43.4657925,9.24228779 43.7336977,8.36077351 C43.906981,7.78954313 44.0677242,7.21403494 44.3644149,6.68986048 C44.7514524,6.00626626 45.2695924,5.46583612 46.0396773,5.2285602 C47.2287203,4.86180919 48.5377507,5.31383123 48.9789392,6.66818624 C49.1456675,7.18038282 49.1428174,7.70655359 49.0225451,8.2341503 C48.8056559,9.18553549 48.5266355,10.1175279 48.1561283,11.0201461 C47.8523124,11.7607778 47.4761051,12.4572054 46.8419679,12.9796688 C46.4215847,13.3261715 45.9308052,13.526373 45.4180803,13.6818002 C45.2576222,13.7305672 45.0903239,13.7585156 44.9318609,13.812416 C44.8714397,13.8329495 44.8021834,13.889987 44.7796679,13.9473097 C44.7181067,14.1027368 44.679346,14.2672899 44.62833,14.4386876 C44.9124805,14.6169297 45.2205715,14.7099008 45.5409177,14.7660827 C46.593443,14.9500286 47.3900335,14.5008584 48.0540963,13.7365562 C48.4602292,13.2694192 48.7914056,12.747241 49.0476256,12.1882737 C49.2152088,11.8226635 49.3044155,11.4205492 49.4235478,11.0332647 C49.6506972,10.2966256 49.8721465,9.55827544 50.103286,8.8230623 C50.1192463,8.77229894 50.1964828,8.70613546 50.2455038,8.70585027 C51.1056504,8.70128727 51.9660821,8.70585027 52.8262287,8.70870215 C52.8310738,8.70870215 52.8359189,8.7144059 52.8706896,8.73579495 C52.8450391,8.83760686 52.8213836,8.95225219 52.787468,9.06347528 C52.4303561,10.2387326 52.0695391,11.4131343 51.7138522,12.588962 C51.6166653,12.9106534 51.5246085,13.234056 51.445947,13.5605955 C51.3584503,13.921928 51.5038031,14.2310711 51.7774084,14.2798382 C52.0373334,14.3263237 52.273033,14.2670047 52.5075925,14.1309704 C52.8829448,13.9133724 52.993812,13.5566029 53.1061041,13.1775888 C53.4298704,12.0830396 53.771022,10.9939089 54.1047635,9.90221145 C54.2130656,9.5477235 54.3148125,9.19095406 54.4325198,8.83931798 C54.4519002,8.78142494 54.5382569,8.70670584 54.5941179,8.70613546 C55.4371643,8.69815021 56.2802106,8.70128727 57.1232569,8.70242802 C57.1397872,8.70242802 57.1566026,8.7098429 57.2061935,8.72182077 C57.1583126,8.8977814 57.1158468,9.07317166 57.0628357,9.24513966 C56.7487597,10.2701032 56.4318335,11.2942112 56.1163324,12.3186044 C55.9441891,12.8781421 55.7714757,13.4373946 55.6036075,13.998073 C55.5688368,14.1144295 55.5446113,14.2353489 55.5312161,14.3562684 C55.5058506,14.5827072 55.6380932,14.7207379 55.8521323,14.6540041 C56.0282657,14.5992481 56.2063942,14.5031399 56.3440518,14.3805093 C56.8408164,13.938754 57.1614476,13.3632458 57.5071593,12.8051341 C57.8067001,12.3220266 57.9312475,11.779315 58.0979758,11.2508627 C58.3524857,10.4440675 58.5893253,9.63185379 58.8407002,8.82391786 C58.8566605,8.7731545 58.933612,8.70613546 58.9826329,8.70585027 C59.8427796,8.70157246 60.7029262,8.70670584 61.5627879,8.7098429 C61.567918,8.71012808 61.5730481,8.71526146 61.6100988,8.73665051 C61.567918,8.89721102 61.5234571,9.06803828 61.4698761,9.27251765 C61.6782151,9.1287832 61.8446583,8.99246362 62.0296269,8.88979615 C62.7492658,8.49053378 63.4902802,8.41724062 64.2412697,8.79882137 C64.7069687,9.03581211 64.9600536,9.4481931 65.0854561,9.93785988 C65.2467692,10.5675537 65.1917631,11.1955364 65.0076495,11.8123967 C64.7867703,12.5510321 64.5544908,13.2862452 64.3313315,14.0240251 C64.2996958,14.128974 64.2831655,14.2399119 64.2720503,14.3494239 C64.2469698,14.5963962 64.3817774,14.7272972 64.619187,14.6488707 C64.7890503,14.5926888 64.9560635,14.4908769 65.0911562,14.3713833 C65.495579,14.0137583 65.7660492,13.5497584 66.0598899,13.1031549 C66.4742879,12.4726056 66.686332,11.7644852 66.8983762,11.0526575 C67.1631463,10.1640135 67.4376066,9.27850659 67.7086468,8.39185894 C67.922116,7.69372016 68.1410002,6.99700732 68.3467742,6.29630186 C68.3935151,6.13659691 68.4604914,6.07841868 68.6334897,6.08098536 C69.4010096,6.09182248 70.1685295,6.08526317 70.9357643,6.08611874 C71.0030256,6.08611874 71.0700019,6.09239286 71.1654788,6.09724104 C70.8254672,7.20462375 70.4928657,8.28662478 70.1551342,9.38602224 C70.3919738,9.2171913 70.5963227,9.04636404 70.8234721,8.91460746 C71.5148955,8.51334877 72.2541998,8.43321111 73.0029093,8.70699102 C73.9841833,9.0654716 74.3487054,10.0165716 74.2198829,10.9143416 C74.0448895,12.1352289 73.3261056,12.973965 72.2909656,13.5754253 C72.0737913,13.7014781 72.0680912,13.6963447 72.1515979,13.929628 C72.1886486,14.0331511 72.2299744,14.1361037 72.2809904,14.2327823 C72.5175449,14.6805265 72.9037274,14.7914644 73.345771,14.5376476 C73.7382236,14.3123495 74.0292142,13.976684 74.2706139,13.6065107 C74.5647396,13.1556294 74.8317897,12.6864961 75.0957049,12.2170777 C75.1709463,12.0827544 75.2461878,12.0376948 75.3804254,12.1038582 C75.6377853,12.2310518 75.8954303,12.357675 76.1493703,12.4914279 C76.239717,12.5390542 76.241997,12.6012251 76.1921211,12.7050333 C75.8378592,13.4430983 75.4619369,14.1683299 74.9728675,14.8279684 C74.4977633,15.4690697 73.9610979,16.0488557 73.2109634,16.3688359 C72.1236673,16.8325507 70.9961855,16.6286417 70.2865217,15.4967329 C69.9157296,14.9055394 69.6922852,14.2553121 69.4953464,13.5928217 C69.470836,13.509547 69.4648508,13.4177166 69.4260901,13.342142 C69.3249131,13.1447923 69.4320752,13.0874696 69.5965234,13.0290062 C70.0354319,12.8732939 70.45268,12.6713812 70.8103619,12.3659455 C71.0352312,12.1737292 71.2122197,11.9507126 71.2620956,11.6441361 C71.3441772,11.1407804 70.9540047,10.75977 70.454675,10.8655745 C70.1149484,10.9377269 69.8256678,11.1054171 69.5999435,11.3672192 C69.5358172,11.4416531 69.5061766,11.5505947 69.4762511,11.648414 C69.0148271,13.1496405 68.5562532,14.6517226 68.0968244,16.1535195 C68.076304,16.2202533 68.0666138,16.2938317 68.0304181,16.3502988 C68.0010625,16.3953584 67.9389313,16.4484032 67.8910504,16.4486884 C67.0366038,16.4538218 66.1818723,16.4515403 65.3274257,16.4501144 C65.3114654,16.4501144 65.2957901,16.4387069 65.2627295,16.4258734 C65.3111804,16.2442091 65.3596314,16.0628299 65.4080823,15.8811655 C65.3972521,15.8720395 65.3861369,15.8629135 65.3753067,15.8540727 C65.3319858,15.883447 65.28781,15.9119657 65.2453441,15.9424808 C64.5849864,16.4150363 63.8590773,16.6511715 63.0391164,16.5807302 C62.345413,16.5214112 61.8150177,16.0651114 61.6491445,15.3877913 C61.4710161,14.6594226 61.5989836,13.9604283 61.8058976,13.2625747 C61.9689207,12.7130186 62.1288088,12.1620365 62.2750166,11.6079173 C62.3377179,11.3697859 62.3334428,11.1125468 62.1154136,10.9517011 C61.8888342,10.7848665 61.6277691,10.8324928 61.3849444,10.9437159 C60.9642763,11.1365026 60.7590723,11.4775867 60.6342399,11.9207679 C60.3195938,13.0358507 59.9633369,14.1389556 59.6250353,15.2471939 C59.5167332,15.601967 59.4166963,15.9593068 59.299844,16.3112281 C59.2804637,16.3696915 59.195817,16.4464069 59.140526,16.4469773 C58.2977646,16.4555329 57.4547183,16.452681 56.611672,16.4515403 C56.5894416,16.4515403 56.5674961,16.4421291 56.5241753,16.4321476 C56.5734813,16.2424979 56.6216472,16.0579817 56.6775083,15.8438059 C56.4324035,15.9923886 56.2283396,16.1338415 56.0091703,16.2462054 C55.374178,16.5710338 54.7047001,16.6871051 54.0021615,16.5214112 C53.5521378,16.4150363 53.2246664,16.1483861 53.0248776,15.728305 C53.0054972,15.6875232 52.9804167,15.6493081 52.9604663,15.6145153 C52.6979762,15.8050204 52.4545815,16.0146332 52.1815462,16.1729122 C51.3689955,16.6437566 50.5111289,16.7501315 49.6284668,16.3896546 C49.1049117,16.1760493 48.7985307,15.7568238 48.6454828,15.2198159 C48.6375026,15.1921527 48.6300925,15.1642043 48.6212573,15.1368263 C48.6198323,15.1319782 48.6138472,15.1282707 48.5824966,15.0946186 L48.5824966,15.0946186 L48.5824966,15.0946186 Z M38.0922985,12.0382651 C38.0922985,11.9917796 38.0948635,11.9452941 38.0920135,11.8990937 C38.0495476,11.2343218 37.4433409,10.9072119 36.8701948,11.2440182 C36.5145079,11.4533458 36.2725382,11.7719001 36.0767394,12.1263881 C35.8105443,12.60864 35.6631964,13.1185551 35.744138,13.6772372 C35.795439,14.0314399 36.0587841,14.2712826 36.4110509,14.2946679 C36.6644208,14.311494 36.881025,14.2242266 37.0696987,14.0707958 C37.7132411,13.5474769 38.0301673,12.8556123 38.0922985,12.0382651 L38.0922985,12.0382651 L38.0922985,12.0382651 Z M45.043868,17.1981609 C45.043868,16.4113289 44.8688747,16.1523787 44.3236591,15.9533179 C44.1959766,15.9068323 44.1592109,15.9461882 44.1264353,16.0534187 C43.8479849,16.9663036 43.5646894,17.8777625 43.2896591,18.7917882 C43.2283829,18.995412 43.1693868,19.2055951 43.1531414,19.4163486 C43.130626,19.7058138 43.2879491,19.8432742 43.5749496,19.8372852 C43.902706,19.8301555 44.1324204,19.6502023 44.3037087,19.3975262 C44.780523,18.6933985 44.990287,17.9008627 45.043868,17.1981609 L45.043868,17.1981609 L45.043868,17.1981609 Z M45.3314386,12.1486327 C45.3436939,12.1588994 45.3559491,12.168881 45.3682043,12.1788625 C45.4824915,12.1255325 45.5993438,12.0770506 45.710496,12.0174465 C46.1821801,11.7647704 46.4637655,11.339556 46.6473091,10.8661449 C46.952265,10.0793128 47.2221652,9.27765103 47.4812352,8.4742781 C47.5684469,8.20363525 47.5995125,7.90903665 47.6166129,7.62327887 C47.6282981,7.43020699 47.4872204,7.30443935 47.3008267,7.25937974 C47.1155732,7.2148905 46.9183493,7.2964541 46.8137523,7.51062984 C46.7003201,7.74305758 46.6128234,7.99060025 46.5353019,8.23842811 C46.2357611,9.1943763 45.9447705,10.1528912 45.6503598,11.1102653 C45.5440527,11.4564828 45.4377457,11.8024152 45.3314386,12.1486327 L45.3314386,12.1486327 L45.3314386,12.1486327 Z" id="Fill-3" fill="#FFFFFF"></path>
                        <path d="M4.5297637,11.972672 C3.93894726,11.2870815 3.50146379,10.5487313 3.28913468,9.68261715 C3.13580171,9.05691597 3.10217106,8.43092961 3.23754868,7.80237656 C3.512579,6.52644809 4.24247813,5.58960746 5.3927604,4.98558052 C6.25148203,4.53441404 7.18202504,4.40693527 8.13080841,4.51416574 C8.68485914,4.57690697 9.22636962,4.75087129 9.77386522,4.87321669 C9.85195673,4.89061312 9.93204328,4.90972067 10.0112748,4.91000586 C10.5983862,4.91314292 11.1854976,4.91171699 11.7723239,4.91171699 L11.9989033,4.91171699 C11.9427572,5.11762229 11.8985814,5.29928667 11.8438603,5.47781399 C11.3867114,6.97333676 10.9278526,8.46857435 10.4684237,9.96381193 C9.99217945,11.5143759 9.5142252,13.0643694 9.03798098,14.6146482 C8.81339663,15.3455835 8.59223235,16.0776596 8.36365792,16.807169 C8.34969265,16.8525138 8.28414138,16.9129735 8.24224557,16.9132587 C7.35872846,16.9186773 6.47549637,16.9163958 5.59197926,16.9149698 C5.57573395,16.9149698 5.55948863,16.9047031 5.50362755,16.8858807 C6.56840816,13.4071647 7.63318878,9.92901907 8.70822959,6.41665094 C8.522691,6.38385439 8.36109287,6.34592446 8.1974997,6.32767247 C7.23931115,6.22215313 6.29451786,6.62255625 5.9864269,7.67832004 C5.77523781,8.40241087 5.88268489,9.09113846 6.21585634,9.75334363 C6.29394785,9.90848558 6.38457961,10.0579238 6.47920144,10.2033694 C6.53648755,10.2912071 6.54133264,10.3468186 6.45070089,10.4192562 C5.81228853,10.9305972 5.17815125,11.4473568 4.5297637,11.972672" id="Fill-4" fill="#FFFFFF"></path>
                        <path d="M18.5095693,13.2851045 C18.4311928,13.3427124 18.3476862,13.3951868 18.2567695,13.4393909 C18.1259519,13.5029877 17.9646388,13.5489029 17.8668819,13.4379649 C17.7981956,13.3601088 17.7742551,13.1935593 17.8033257,13.0866141 C17.9880092,12.4104347 18.181813,11.7365369 18.3944271,11.068628 C18.597351,10.4318045 18.7441289,9.78984761 18.6640423,9.11794608 C18.5922209,8.51677102 18.3662116,7.98518169 17.8232761,7.66577179 C17.1589282,7.27449467 16.4583846,7.29132073 15.7698113,7.60160463 C15.5001961,7.72309446 15.2587964,7.90675515 14.9874712,8.07273423 C15.0336421,7.89534766 15.0786729,7.72395002 15.1251288,7.54599308 C15.0698378,7.53572633 15.0473223,7.52802627 15.0250919,7.52802627 C14.1880307,7.52717071 13.3509695,7.52431884 12.5139083,7.53258927 C12.4571922,7.53287446 12.3677004,7.60759356 12.3497451,7.66520142 C11.9977633,8.79340281 11.6554716,9.92474126 11.3091899,11.054939 C10.9355477,12.2735448 10.5596254,13.4915802 10.1862682,14.710186 C10.1309771,14.8901392 10.0836662,15.0726592 10.0323652,15.2551791 C10.0759711,15.2677274 10.0922164,15.2765682 10.1087467,15.2765682 C10.9574931,15.2779941 11.8059546,15.2811312 12.654701,15.2731459 C12.708852,15.2725755 12.7917886,15.1938638 12.811454,15.13483 C12.9340064,14.7666531 13.0420235,14.393628 13.1551707,14.0223139 C13.4849221,12.9417389 13.8317738,11.8662971 14.1364447,10.7788775 C14.2632721,10.3259999 14.4599259,9.96552306 14.8971244,9.76874375 C15.1408041,9.65923178 15.4021542,9.61074992 15.6273085,9.77901049 C15.8424877,9.93985619 15.8473328,10.1953841 15.7846316,10.4352267 C15.6592292,10.9169083 15.5269866,11.397449 15.3799238,11.8731416 C15.1655996,12.5658619 14.9931713,13.2620043 15.1114486,13.994936 C15.1921051,14.4965806 15.394744,14.9349137 15.8607281,15.1867341 C16.5153857,15.5409369 17.1971189,15.4670734 17.8683069,15.2406346 C18.2507843,15.1117299 18.5902259,14.9101024 18.8991719,14.6639856 C18.7119233,14.3839316 18.5819607,14.0653772 18.5263847,13.7006226 C18.5050093,13.5605955 18.5001642,13.4211389 18.5095693,13.2851045" id="Fill-5" fill="#FFFFFF"></path>
                        <path d="M21.6035892,18.338055 C21.541743,18.338055 21.4798969,18.3277883 21.4092155,18.3063992 C21.0942844,18.2114318 20.7779283,18.1184607 20.4493169,18.0217822 L19.680372,17.7950582 L20.1494911,16.2199681 C20.1477811,16.2191126 20.146356,16.218257 20.144931,16.2174014 C19.9115115,16.0924894 19.6701118,15.9632995 19.4423924,15.8053056 C19.0650451,15.5437888 18.7600892,15.2414901 18.5363599,14.9069653 C18.3063604,14.5627441 18.1575875,14.179167 18.0948863,13.7665008 C18.0692358,13.5976699 18.0621107,13.4254167 18.0743659,13.2543043 C18.1350721,12.3927531 18.6785776,11.6720845 19.4586377,11.4179825 C19.6552915,11.3541006 19.8636306,11.3195929 20.0776697,11.3158854 L20.1095903,11.3156003 C20.3740754,11.3156003 20.6322904,11.3709266 20.8697,11.4773015 C20.7049668,11.2947816 20.5510639,11.0971467 20.4134062,10.8801191 C19.4053417,9.29476227 19.887001,7.23656474 21.5098224,6.19448995 C22.0932287,5.82032407 22.7299311,5.61384839 23.4033991,5.58019627 C23.4965959,5.25109 23.5949228,4.92340967 23.6932497,4.59601452 L23.7653561,4.35531635 C23.7807464,4.3042678 23.8015518,4.25493038 23.8277723,4.19760771 L23.8508578,4.14655917 L24.0021957,3.79406753 L24.5223308,3.94150942 C24.639468,3.97430597 24.7560353,4.00710252 24.8717475,4.04103983 L25.1772734,4.13201461 C25.3345965,4.17907053 25.4919195,4.22641164 25.6500976,4.27090088 C25.826516,4.32052349 25.9527734,4.41549089 26.0254499,4.55266604 C26.0986963,4.69126712 26.1058214,4.85182763 26.0465403,5.02978457 C25.9695888,5.26135675 25.8994774,5.49549561 25.8293661,5.72934929 C25.8079906,5.80064614 25.7866152,5.87194299 25.7652398,5.94295466 C26.3571963,6.18850101 26.8240353,6.51703691 27.1908374,6.94367727 C27.7853589,7.63525674 28.0088033,8.39128856 27.8554703,9.19095406 C27.7021373,9.98919361 26.9990287,10.6391357 26.1839129,10.7358142 C26.0918561,10.7466514 25.9992293,10.7520699 25.9088826,10.7520699 C25.7592547,10.7520699 25.6144719,10.7372402 25.4759592,10.7084363 C25.6050667,10.8436151 25.7290441,10.9856384 25.8464664,11.1365026 C26.7442338,12.2900856 26.7373936,13.8298124 25.828796,15.0589702 C25.2376946,15.8583505 24.4177337,16.3654137 23.3919989,16.5653301 C23.0844779,16.6255046 22.7735369,16.6525974 22.4905264,16.6737013 C22.4321003,16.8750436 22.3711091,17.07496 22.3104029,17.2745912 C22.2445667,17.490478 22.1787304,17.7060797 22.1163142,17.9228221 C22.005732,18.3078251 21.695931,18.338055 21.6035892,18.338055 L21.6035892,18.338055 L21.6035892,18.338055 Z M21.9413208,13.7722046 C21.9709614,13.7742009 22.0014569,13.7750565 22.0322375,13.7750565 C22.1234393,13.7750565 22.2209112,13.7662157 22.3223732,13.7482488 C22.521022,13.7137412 22.6626697,13.6452962 22.7678368,13.5337879 C22.8749989,13.4199981 22.9647756,13.2468894 22.7846521,13.0672213 C22.6053836,12.8884088 22.3796593,12.728989 22.16163,12.5747027 C22.0216923,12.4757426 21.8806146,12.3736455 21.7412469,12.2664151 C22.002882,12.7175816 22.0806885,13.264571 21.9413208,13.7722046 L21.9413208,13.7722046 L21.9413208,13.7722046 Z M23.9962106,8.38187738 C23.7630761,8.4018405 23.5584421,8.50393759 23.4718004,8.6485276 C23.3637833,8.82905123 23.4242045,8.89521471 23.45014,8.92373345 C23.6359636,9.12707208 23.8542778,9.31130314 24.0728771,9.48840452 C24.0486516,9.42110029 24.0275612,9.35151457 24.0098908,9.28021771 C23.9340794,8.97278569 23.9298043,8.66792035 23.9962106,8.38187738 L23.9962106,8.38187738 L23.9962106,8.38187738 Z" id="Fill-6" fill="#FFDF17"></path>
                        <path d="M24.2518605,4.31881236 C24.4191588,4.36643866 24.584462,4.41178346 24.7489101,4.45998013 C25.0099752,4.53669554 25.2699002,4.61740358 25.5315353,4.69126712 C25.6449675,4.72320811 25.673468,4.76883809 25.6324272,4.89175387 C25.5027497,5.28189024 25.3921676,5.67858593 25.2690452,6.07128899 C25.2345595,6.18165652 25.2707552,6.22329388 25.3753523,6.26065343 C25.9465033,6.46427724 26.4603683,6.76372402 26.859946,7.22829431 C27.324505,7.76872445 27.5661897,8.38244775 27.426822,9.10853489 C27.3079747,9.72710638 26.754779,10.2281807 26.1323269,10.3020442 C26.0565155,10.310885 25.981844,10.315448 25.9088826,10.315448 C25.1781284,10.315448 24.6064074,9.87369271 24.433694,9.17526875 C24.3550325,8.85728479 24.3670027,8.52874889 24.5112155,8.21989093 C24.537436,8.16285345 24.5633715,8.10581596 24.5950072,8.03623024 C24.4271389,7.97206307 24.2510055,7.94154802 24.0797172,7.94154802 C23.6667442,7.94154802 23.2805617,8.11836421 23.0975882,8.42408511 C22.9368451,8.69216128 22.9151846,8.98533393 23.1280838,9.21833205 C23.3686284,9.48127484 23.6504989,9.70913958 23.9295193,9.93329688 C24.4912652,10.3844634 25.0547211,10.8299261 25.5021797,11.4048639 C26.3096004,12.4423757 26.2269488,13.7858936 25.4776692,14.7991645 C24.9358738,15.5323813 24.1957144,15.9635846 23.3084923,16.1369786 C22.9912811,16.1988643 22.6658048,16.2233904 22.3426086,16.2467757 C22.213216,16.2561869 22.1468098,16.2875575 22.109189,16.4204549 C21.9783715,16.8827437 21.8295986,17.3401843 21.696786,17.8021879 C21.6762657,17.8743403 21.6491901,17.9011479 21.6035892,17.9011479 C21.5844939,17.9011479 21.5619784,17.8965849 21.5357579,17.8885997 C21.1091047,17.7596949 20.6813114,17.635068 20.2235925,17.4998892 C20.3757855,16.9888334 20.5251284,16.4880443 20.6687711,16.0060776 C20.3307546,15.8147168 19.9933081,15.6558674 19.6909172,15.4462547 C19.372281,15.2255196 19.1020958,14.9671398 18.8991719,14.6639856 C18.7119233,14.3839316 18.5819607,14.0653772 18.5263847,13.7006226 C18.5050093,13.5605955 18.5001642,13.4211389 18.5095693,13.2851045 C18.5565953,12.6228993 18.957313,12.0405466 19.5937303,11.8332154 C19.7447833,11.7841632 19.9089464,11.7556444 20.0847948,11.7527925 C20.093345,11.7525074 20.1013252,11.7525074 20.1095903,11.7525074 C20.4105561,11.7525074 20.6821664,11.8437673 20.9076058,11.9957722 C21.5098224,12.4021643 21.7825727,13.2448931 21.4003803,13.9567208 C21.38385,13.9872359 21.3690297,14.0188917 21.3456593,14.0653772 C21.5702436,14.1683299 21.799673,14.2119636 22.0319525,14.2119636 C22.1530799,14.2119636 22.2750622,14.1999857 22.3976146,14.1785966 C22.6578247,14.1329667 22.8977993,14.0322955 23.0853329,13.8332347 C23.3939939,13.5058396 23.4116642,13.0760621 23.0927431,12.7580782 C22.8892491,12.5547395 22.6495595,12.385053 22.4132899,12.2182184 C21.7885578,11.7767483 21.1994514,11.3027668 20.7816333,10.645695 C19.8801609,9.22831361 20.3814856,7.43790705 21.745807,6.56209652 C22.2787673,6.21987163 22.8673037,6.03136275 23.500301,6.01339595 C23.6929647,6.0076922 23.759371,5.92698416 23.8049719,5.76471253 C23.9255292,5.3349351 24.0554917,4.90800955 24.1834592,4.48022844 C24.1982795,4.43146139 24.22336,4.38554622 24.2518605,4.31881236 M23.7519608,3.2693227 L23.44957,3.97459116 C23.4432999,3.98970609 23.4370297,4.00282471 23.4313296,4.01537296 C23.4073892,4.06727707 23.3746135,4.13857392 23.347253,4.22983389 L23.2774267,4.46254682 C23.2078853,4.69468937 23.1366339,4.93196529 23.0668076,5.17123753 C22.4326703,5.24966406 21.8313087,5.46954356 21.2744079,5.82716857 C19.522479,6.95137733 18.9536079,9.13077951 19.9106565,10.8869636 C19.7091576,10.9023637 19.5125038,10.9411492 19.3235451,11.0027497 C18.3736217,11.312178 17.7124089,12.1837107 17.6388775,13.223504 C17.6246272,13.4268426 17.6328924,13.6318924 17.663388,13.8323791 C17.7360644,14.3086421 17.9076377,14.7518233 18.1738328,15.1496598 C18.4283428,15.5300998 18.7714894,15.8714691 19.1938676,16.1643566 C19.3386504,16.2647425 19.4848582,16.3525803 19.630211,16.4344291 L19.1368665,18.089942 L19.9764927,18.3377698 L20.3355997,18.4435743 C20.659936,18.5388269 20.972017,18.6306573 21.283528,18.7247691 C21.3946802,18.7584212 21.4992772,18.7746769 21.6035892,18.7746769 C21.9364757,18.7746769 22.3807993,18.5833162 22.5358423,18.0437416 C22.5974035,17.8295659 22.6623847,17.6165309 22.727366,17.4034959 C22.7592866,17.2985469 22.7917772,17.1918868 22.8242679,17.0843712 C23.0337469,17.064408 23.2532012,17.0376004 23.4755055,16.9939667 C24.6118225,16.7723761 25.5215601,16.2085606 26.1796378,15.3184907 C27.1212961,14.0445586 27.1911224,12.4084384 26.3868368,11.1459137 C27.3202299,10.9690975 28.1054201,10.2033694 28.2841186,9.27308803 C28.4639571,8.3359622 28.2074521,7.45644423 27.5217288,6.65877505 C27.1874173,6.26977943 26.7818545,5.95493253 26.292215,5.70510836 C26.3477911,5.52116248 26.4019421,5.34377591 26.4606533,5.16781528 C26.5832057,4.79935315 26.5014091,4.51901392 26.4110623,4.34847185 C26.3212856,4.17878534 26.136887,3.95462804 25.7686599,3.85053464 C25.6113368,3.80633059 25.4548688,3.75927467 25.2984008,3.71250393 C25.1972238,3.68198888 25.0957619,3.65175901 24.9942999,3.62181434 C24.8777326,3.58787703 24.7608804,3.55479529 24.6431731,3.52171355 L24.4898401,3.47865026 L23.7519608,3.2693227" id="Fill-7" fill="#A2801C"></path>
                        <path d="M26.5450149,8.92544458 L27.429387,5.20232296 L26.8226103,8.98077094 L29.0633237,5.87964305 L27.0577398,9.13819438 L30.3139279,7.13133059 L27.2150629,9.373474 L30.990816,8.76631 L27.270354,9.65124653 L30.990816,10.5361831 L27.2150629,9.92901907 L30.3139279,12.1714477 L27.0577398,10.1645839 L29.0633237,13.42285 L26.8226103,10.3217221 L27.429387,14.1001701 L26.5450149,10.3770485 L25.6606428,14.1001701 L26.2674195,10.3217221 L24.0264212,13.42285 L26.032005,10.1645839 L22.7758169,12.1714477 L25.8749669,9.92901907 L22.0989288,10.5361831 L25.8196759,9.65124653 L22.0989288,8.76631 L25.8749669,9.373474 L22.7758169,7.13133059 L26.032005,9.13819438 L24.0264212,5.87964305 L26.2674195,8.98077094 L25.6606428,5.20232296 L26.5450149,8.92544458" id="Fill-8" fill="#FFFFFF"></path>
                    </g>
                </g>
            </g>
        </g>
    </g>
</svg>