<?xml version="1.0" encoding="UTF-8" standalone="no"?>
<svg width="1248px" height="1202px" viewBox="0 0 1248 1202" version="1.1" xmlns="http://www.w3.org/2000/svg" xmlns:xlink="http://www.w3.org/1999/xlink" xmlns:sketch="http://www.bohemiancoding.com/sketch/ns">
    <!-- Generator: Sketch 3.3.2 (12043) - http://www.bohemiancoding.com/sketch -->
    <title>Group Copy 3 + Oval 68 Copy Copy Copy + Group</title>
    <desc>Created with Sketch.</desc>
    <defs>
        <rect id="path-1" x="0" y="0" width="1023.64964" height="1024.39498" rx="199.93157"></rect>
    </defs>
    <g id="Page-1" stroke="none" stroke-width="1" fill="none" fill-rule="evenodd" sketch:type="MSPage">
        <g id="LOGOTIPO" sketch:type="MSArtboardGroup" transform="translate(-362.000000, -385.000000)">
            <g id="Group-Copy-3-+-Oval-68-Copy-Copy-Copy-+-Group" sketch:type="MSLayerGroup" transform="translate(362.000000, 385.000000)">
                <g id="Group-Copy-3-+-Oval-68-Copy-Copy-Copy" transform="translate(112.000000, 0.000000)">
                    <g id="Group-Copy-3" transform="translate(0.131788, 0.605024)">
                        <mask id="mask-2" sketch:name="Mask Copy" fill="white">
                            <use xlink:href="#path-1"></use>
                        </mask>
                        <use id="Mask-Copy" fill="#D8D8D8" sketch:type="MSShapeGroup" xlink:href="#path-1"></use>
                        <rect id="Rectangle-16-Copy-2" fill="#FFDE00" sketch:type="MSShapeGroup" mask="url(#mask-2)" x="0" y="0" width="1023.64964" height="1024.39498"></rect>
                        <rect id="Rectangle-16-Copy-3" fill="#E7C900" sketch:type="MSShapeGroup" mask="url(#mask-2)" x="0" y="506.026855" width="1023.64964" height="518.368121"></rect>
                        <path d="M261.557127,426.164316 L216.164945,551.400458 C215.926504,552.046904 215.671989,552.68262 215.436227,553.334431 C215.200465,553.983559 214.986136,554.63537 214.758412,555.28718 L210.887096,565.965607 L211.171082,566.067537 C168.246361,705.02657 241.512017,854.672078 379.545187,904.823937 C410.397833,916.033469 441.976517,921.355247 473.000626,921.355247 C580.78663,921.355247 682.182954,857.214944 725.72387,753.027186 L726.058759,753.147892 L776.734149,613.346601 L261.557127,426.164316" id="Imported-Layers-Copy-2" opacity="0.136310634" fill="#000000" sketch:type="MSShapeGroup" mask="url(#mask-2)"></path>
                        <ellipse id="Oval-6-Copy-4" fill="#A2801C" sketch:type="MSShapeGroup" mask="url(#mask-2)" cx="512.824477" cy="513.197874" rx="289.900776" ry="290.111859"></ellipse>
                        <ellipse id="Oval-6-Copy-6" fill="#E6C901" sketch:type="MSShapeGroup" mask="url(#mask-2)" cx="513.324306" cy="511.697295" rx="265.409159" ry="265.602408"></ellipse>
                        <ellipse id="Oval-6-Copy-7" fill="#FFDE00" sketch:type="MSShapeGroup" mask="url(#mask-2)" cx="511.824819" cy="512.197488" rx="235.919252" ry="236.09103"></ellipse>
                        <ellipse id="Oval-6-Copy-8" fill="#14353C" sketch:type="MSShapeGroup" mask="url(#mask-2)" cx="511.32499" cy="511.697295" rx="212.427293" ry="212.581965"></ellipse>
                        <g id="Group-Copy" mask="url(#mask-2)">
                            <g transform="translate(332.886064, 325.125359)">
                                <g id="Group" stroke-width="1" fill="none" sketch:type="MSLayerGroup" transform="translate(20.243855, 24.576039)">
                                    <ellipse id="Oval-12" fill="#00AEE2" sketch:type="MSShapeGroup" cx="159.819907" cy="160.278517" rx="159.819907" ry="160.278517"></ellipse>
                                    <path d="M46.5481992,94.7911015 L46.5481992,46.6817712 L94.5204087,46.6817712 L94.5204087,46.6817712 L118.387763,5.34230029 L159.932915,29.328405 L201.272386,5.46105037 L225.071181,46.6817712 L272.668769,46.6817712 L272.668769,94.4164806 L314.213921,118.402585 L290.346567,159.742056 L314.332671,201.287208 L272.668769,225.341874 L272.668769,273.451204 L224.69656,273.451204 L200.829205,314.790675 L159.284053,290.80457 L117.944582,314.671925 L94.1457878,273.451204 L46.5481992,273.451204 L46.5481992,225.716494 L5.00304708,201.73039 L28.8704018,160.390919 L4.884297,118.845767 L46.5481992,94.7911015 Z" id="Rectangle-18" opacity="0.652110541" fill="#81EDFF" sketch:type="MSShapeGroup"></path>
                                    <path d="M107.573711,107.882399 L114.545049,81.7903544 L140.562436,88.7816967 L140.562436,88.7816967 L159.608484,69.6809945 L178.654533,88.7816967 L204.671919,81.7903544 L211.643257,107.882399 L237.660643,114.873741 L230.689306,140.965785 L249.735354,160.066488 L230.689306,179.16719 L237.660643,205.259234 L211.643257,212.250576 L204.671919,238.342621 L178.654533,231.351278 L159.608484,250.451981 L140.562436,231.351278 L114.545049,238.342621 L107.573711,212.250576 L81.5563251,205.259234 L88.5276628,179.16719 L69.4816141,160.066488 L88.5276628,140.965785 L81.5563251,114.873741 L107.573711,107.882399 L107.573711,107.882399 Z" id="Rectangle-18-Copy-3" opacity="0.652110541" fill="#81EDFF" sketch:type="MSShapeGroup"></path>
                                </g>
                                <ellipse id="Oval-13-Copy-2" opacity="0.605352146" fill="#2CB3E8" sketch:type="MSShapeGroup" cx="180.063762" cy="184.854556" rx="102.983227" ry="103.278742"></ellipse>
                                <ellipse id="Oval-13" opacity="0.586578825" fill="#FFFFFF" sketch:type="MSShapeGroup" cx="67.9718321" cy="67.783971" rx="67.5900186" ry="67.783971"></ellipse>
                                <ellipse id="Oval-13-Copy" opacity="0.586578825" fill="#FFFFFF" sketch:type="MSShapeGroup" cx="109.957128" cy="113.770581" rx="35.6660244" ry="35.7683696"></ellipse>
                            </g>
                        </g>
                        <path d="M700.969257,699.133041 C804.639245,595.463052 804.700393,427.441938 701.105833,323.847378 C597.511274,220.252819 429.490159,220.313966 325.820171,323.983955 C422.478564,420.642338 609.946941,608.110715 700.969257,699.133041 Z" id="Oval-6-Copy-9" opacity="0.1875" fill="#FFFFFF" sketch:type="MSShapeGroup" mask="url(#mask-2)"></path>
                    </g>
                    <ellipse id="Oval-68-Copy" fill="#4D3085" sketch:type="MSShapeGroup" cx="843.851852" cy="187.512847" rx="58.9958848" ry="58.9928058"></ellipse>
                </g>
                <g id="Group" transform="translate(0.000000, 809.000000)" sketch:type="MSShapeGroup">
                    <path d="M670.379032,381.689539 C660.262545,381.689539 650.576165,380.012843 641.58871,376.699798 C620.34319,368.881191 605.773297,352.199404 600.571685,329.738843 C598.264337,319.777292 597.735663,309.690213 598.972222,299.06964 C595.267025,297.989202 591.637993,296.60391 588.120968,294.92273 C577.650538,299.414843 566.59767,301.687798 555.168459,301.687798 C552.466846,301.687798 549.751792,301.557787 547.108423,301.315697 C534.379928,300.12318 522.901434,296.415618 512.946237,290.273708 C507.637097,293.071191 502.090502,295.362079 496.418459,297.110506 C485.983871,300.315955 476.181004,301.871607 466.44086,301.871607 C453.833333,301.871607 441.74552,299.177236 430.517921,293.860225 C426.974014,292.183528 423.609319,290.228876 420.473118,288.018685 C410.831541,295.200685 399.998208,300.66564 388.179211,304.305955 C379.532258,323.628315 360.773297,335.956966 339.630824,335.956966 C334.290323,335.956966 328.896057,335.145517 323.600358,333.545034 C318.994624,332.159742 314.366487,330.796865 309.572581,329.380191 L269.379928,317.52227 C265.128136,316.271472 261.620072,313.429157 259.509857,309.52882 C257.395161,305.632966 256.924731,301.145337 258.192652,296.895315 L262.22491,283.360697 C251.257168,282.984112 240.844982,280.168697 231.243728,274.97273 C229.09767,273.811596 227.032258,272.524933 225.056452,271.117225 C217.807348,277.295 208.681004,280.809787 199.344086,280.908416 C194.648746,280.953247 177.341398,280.966697 166.942652,280.97118 C161.400538,296.110764 150.768817,303.548303 134.536738,303.655899 L134.017025,303.655899 C126.270609,303.655899 72.9507168,302.880315 56.7948029,302.642708 C51.5080645,302.566494 46.5304659,299.934888 43.4973118,295.595202 C40.4551971,291.251034 39.6756272,285.656067 41.4139785,280.634944 L58.3136201,232.024191 L43.0582437,216.521472 C42.7715054,216.225584 42.5116487,215.943146 42.2607527,215.656225 C28.2598566,199.364472 19.2724014,182.480944 14.7428315,163.996933 C10.8181004,147.996584 10.468638,132.296607 13.6899642,117.331865 C20.3611111,86.3936742 38.8243728,62.1936517 67.0994624,47.3409888 C82.6863799,39.154764 99.8413978,35.0033708 118.080645,35.0033708 C122.672939,35.0033708 127.395161,35.2768427 132.117384,35.8058539 C140.647849,36.7697303 148.206093,38.693 154.87724,40.3921124 C156.781362,40.8762921 158.667563,41.3604719 160.558244,41.8043034 C166.646953,41.8177528 216.803763,41.8177528 216.803763,41.8177528 C222.005376,41.8177528 226.799283,44.1893371 229.957885,48.3227978 C233.116487,52.4562584 234.146953,57.7105056 232.784946,62.7316292 L227.301075,82.9461348 L236.248208,82.9461348 C238.954301,82.9461348 241.27509,83.2375393 242.914875,83.5154944 C249.796595,81.4891124 256.758961,80.4669551 263.658602,80.4669551 C272.251792,80.4669551 280.634409,82.0270899 288.640681,85.1025281 C295.647849,76.1810674 304.129032,68.5059213 313.896057,62.234 C319.904122,58.3784944 326.234767,55.1371798 332.740143,52.5817865 C335.871864,44.9469888 342.130824,30.3274494 345.849462,21.688427 C348.47491,15.5958315 354.438172,11.6641124 361.046595,11.6641124 C362.587814,11.6641124 364.124552,11.8793034 365.607527,12.3052022 C378.327061,15.9455169 413.698925,26.077427 415.432796,26.5660899 C430.078853,30.6995506 441.956093,40.1724382 448.869176,53.2452921 C452.166667,59.4678989 454.196237,66.3629775 454.827957,73.4194494 C462.982079,71.2540899 515.03853,57.3428876 536.602151,51.5820449 C538.013441,51.2009775 539.460573,51.0126854 540.903226,51.0126854 C546.109319,51.0126854 551.077957,53.5277303 554.191756,57.7463708 C557.341398,62.018809 558.250896,67.3851348 556.687276,72.4735056 L547.829749,101.241854 L558.887097,101.241854 C582.386201,99.2289213 583.291219,99.2289213 583.833333,99.2289213 C591.862007,99.4485955 599.344086,100.771124 606.342294,103.17409 C610.414875,101.968124 614.769713,101.362899 619.321685,101.362899 L658.371864,101.367382 C660.18638,96.947 662.139785,92.8987191 664.299283,89.0880449 C676.001792,68.4117753 692.238351,54.7516292 712.551971,48.484191 C720.320789,46.090191 728.30914,44.8752584 736.293011,44.8752584 C768.689964,44.8752584 796.12276,64.8387079 806.181004,95.7365506 C806.790323,97.6149888 807.336918,99.524809 807.807348,101.457045 L837.0681,101.528775 C839.922043,101.533258 842.713262,102.281944 845.19086,103.703101 C849.290323,102.264011 853.542115,101.515326 857.861111,101.470494 C864.124552,101.412213 890.921147,101.40773 896.862007,101.40773 L898.035842,101.40773 C899.218638,101.40773 901.90681,101.40773 913.421147,104.021404 C917.834229,102.349191 922.395161,101.488427 927.005376,101.461528 L928.721326,101.457045 C937.180108,101.457045 971.051075,101.546708 975.110215,101.555674 C981.405018,99.8475955 987.793907,98.9823483 994.146953,98.9823483 C1005.50448,98.9823483 1016.60663,101.699135 1027.14875,107.056494 C1028.85573,107.921742 1030.5224,108.867685 1032.13978,109.889843 C1033.03136,106.872685 1033.84677,103.97209 1034.67563,101.031146 C1035.49104,98.1215843 1036.31989,95.1761573 1037.23835,92.0469213 C1042.7267,73.3566854 1058.77957,61.2880562 1078.13441,61.2880562 L1147.56093,62.1533034 C1152.75358,62.2205506 1157.67742,64.7624944 1160.73746,68.9632022 C1163.79749,73.159427 1164.71595,78.6333483 1163.18369,83.6006742 L1157.33692,102.645079 C1158.46147,102.999247 1159.57706,103.380315 1160.68817,103.788281 C1185.48656,112.848719 1201.90681,134.12573 1204.79659,160.266955 C1208.14785,161.925719 1211.51254,163.606899 1214.83692,165.359809 C1234.38441,175.639663 1241.81272,198.669584 1232.09498,218.924438 C1225.95699,231.714854 1218.92742,245.366034 1209.1828,258.515101 C1200.04749,270.830303 1186.87097,286.113348 1165.83154,295.084124 C1155.42832,299.522438 1144.78763,301.777461 1134.20968,301.777461 C1119.71595,301.777461 1105.76882,297.348112 1093.9319,289.121539 C1086.60215,295.554854 1077.16219,299.329663 1067.50269,299.392427 C1063.84677,299.414843 1051.09588,299.419326 1040.8405,299.419326 L1026.91577,299.414843 C1024.14247,299.414843 1021.36022,299.109989 1018.62724,298.509247 C1011.10036,300.598393 1003.31362,301.660899 995.432796,301.660899 C992.914875,301.660899 990.334229,301.54882 987.758065,301.329146 C976.024194,300.324921 965.128136,296.272157 955.930108,289.538472 C948.667563,295.738663 939.518817,299.266899 930.101254,299.365528 C922.717742,299.437258 915.34319,299.459674 907.973118,299.459674 L889.908602,299.437258 C887.099462,299.437258 884.326165,299.132404 881.490143,298.51373 C874.066308,300.638742 866.494624,301.710213 858.93638,301.710213 C852.68638,301.710213 846.382616,300.970494 840.199821,299.517955 C836.068996,298.536146 832.081541,297.168787 828.3181,295.424843 C818.058244,299.683831 807.462366,301.844708 796.781362,301.844708 C786.396057,301.844708 776.064516,299.79591 766.068996,295.752112 C765.114695,300.203876 764.057348,303.960753 763.232975,306.74927 C757.457885,326.228539 748.900538,341.735742 737.0681,354.158539 C722.973118,368.952921 705.258065,377.883348 684.420251,380.70773 C679.523297,381.366753 674.926523,381.689539 670.379032,381.689539" id="Fill-1" fill="#1A1918"></path>
                    <path d="M361.051075,22.8719775 C361.534946,22.8719775 362.032258,22.9392247 362.520609,23.0782022 C375.258065,26.723 410.65233,36.8593933 412.390681,37.3525393 C424.070789,40.6476517 433.501792,48.1524382 438.967742,58.4860899 C442.198029,64.5876517 443.837814,71.2989213 443.842294,78.1536517 C443.842294,79.7003371 444.456093,81.1618427 445.603047,82.2064157 C446.378136,82.9057865 447.135305,83.6230899 447.883513,84.3493596 C448.927419,85.3715169 450.293907,85.9319101 451.687276,85.9319101 C452.323477,85.9319101 452.964158,85.8108652 453.586918,85.5687753 C454.783154,85.0980449 456.024194,84.6945618 457.301075,84.3538427 C464.008065,82.583 517.543011,68.2727978 539.496416,62.4088427 C539.971326,62.2788315 540.446237,62.2205506 540.903226,62.2205506 C544.357527,62.2205506 547.077061,65.6187753 545.983871,69.1739101 L534.792115,105.505326 C533.730287,108.952865 536.306452,112.449719 539.917563,112.449719 L559.129032,112.449719 C559.281362,112.449719 559.415771,112.440753 559.5681,112.431787 C561.91129,112.230045 582.905914,110.436787 583.833333,110.436787 L583.846774,110.436787 C591.113799,110.638528 597.99552,111.970022 604.339606,114.359539 C604.953405,114.592663 605.585125,114.700258 606.221326,114.700258 C606.862007,114.700258 607.502688,114.58818 608.125448,114.368506 C611.512545,113.184955 615.262545,112.570764 619.321685,112.570764 L662.36828,112.575247 C664.617384,112.575247 666.59767,111.15409 667.390681,109.047011 C669.173835,104.303843 671.306452,99.4485955 674.043907,94.615764 C684.290323,76.5083371 698.358423,64.5876517 715.849462,59.194427 C722.551971,57.1276966 729.429211,56.0831236 736.293011,56.0831236 C763.748208,56.0831236 787.000896,73.007 795.531362,99.2065056 C796.481183,102.120551 797.229391,105.088393 797.775986,108.096584 C798.250896,110.692326 800.379032,112.642494 803.017921,112.651461 C811.978495,112.669393 831.382616,112.723191 837.036738,112.73664 C838.080645,112.741124 839.075269,113.050461 839.948925,113.624303 L841.767921,114.825787 C842.587814,115.368247 843.519713,115.623787 844.460573,115.623787 C845.235663,115.623787 846.015233,115.453427 846.74552,115.13064 C850.262545,113.583955 854.070789,112.718708 857.977599,112.67836 C864.187276,112.620079 890.679211,112.615596 896.776882,112.615596 L898.035842,112.615596 C900.634409,112.615596 909.075269,114.511966 912.758065,115.37273 C913.129928,115.45791 913.506272,115.498258 913.878136,115.498258 C914.653226,115.498258 915.419355,115.323416 916.149642,115.009596 C919.590502,113.521191 923.300179,112.691809 927.072581,112.669393 C927.37276,112.669393 927.932796,112.66491 928.703405,112.66491 C937.659498,112.66491 975.482079,112.763539 975.482079,112.763539 L975.871864,113.001146 C981.920251,111.131674 988.031362,110.190213 994.146953,110.190213 C1003.72581,110.190213 1013.12097,112.494551 1022.07258,117.044944 C1025.1371,118.605079 1028.50179,120.703191 1031.83513,123.514124 C1032.88351,124.397303 1034.12455,124.809753 1035.34767,124.809753 C1037.56989,124.809753 1039.72043,123.43791 1040.4552,121.048393 L1041.65143,117.157022 C1044.01703,109.481876 1045.72849,102.905101 1047.98656,95.2030562 C1052.09946,81.1932247 1063.64964,72.4959213 1078.13441,72.4959213 L1147.42204,73.3611685 C1151.00179,73.406 1153.53315,76.8804382 1152.48029,80.3010787 L1144.85484,105.124258 C1143.9543,108.060719 1145.67473,111.180989 1148.66308,111.875876 C1151.4095,112.512483 1154.14247,113.328416 1156.84857,114.314708 C1179.5905,122.626461 1193.67204,143.329629 1194.04839,167.614831 C1195.00717,167.982449 1195.95699,168.394899 1196.89337,168.861146 L1197.35484,169.089787 C1201.45878,171.111685 1205.5672,173.142551 1209.61738,175.276528 C1223.71685,182.691652 1229.04839,199.373438 1221.99642,214.073674 C1216.09588,226.366461 1209.37097,239.443798 1200.18638,251.835213 C1191.89785,263.011697 1180.01165,276.855652 1161.44086,284.772888 C1152.42652,288.619427 1143.26434,290.569596 1134.20968,290.569596 C1134.20968,290.569596 1134.20968,290.569596 1134.2052,290.569596 C1118.43907,290.569596 1103.87814,284.499416 1092.54749,273.515708 C1092.37724,273.798146 1092.19803,274.085067 1092.01434,274.371989 C1086.54839,282.827202 1077.12186,288.126281 1067.431,288.184562 C1063.93638,288.202494 1052.05018,288.206978 1042.05018,288.206978 L1026.92025,288.206978 C1024.15143,288.206978 1021.74552,287.781079 1019.81452,287.265517 C1019.37545,287.144472 1018.92294,287.081708 1018.47043,287.081708 C1018.01344,287.081708 1017.55197,287.148955 1017.10842,287.283449 C1010.09229,289.390528 1002.85215,290.453034 995.432796,290.453034 C993.219534,290.453034 990.97491,290.358888 988.698925,290.161629 C977.318996,289.188787 967.094982,284.737022 959.084229,277.725382 C958.053763,276.819787 956.763441,276.362506 955.491039,276.362506 C954.079749,276.362506 952.6819,276.922899 951.669355,278.061618 C946.189964,284.216978 938.304659,288.072483 929.984767,288.157663 C922.646057,288.229393 915.311828,288.247326 907.973118,288.247326 L889.922043,288.229393 C886.606631,288.229393 883.963262,287.628652 882.22491,287.157921 L881.12724,286.906865 C873.828853,289.296382 866.400538,290.506831 858.93638,290.506831 C853.542115,290.506831 848.103047,289.865742 842.767025,288.610461 C838.586918,287.619685 834.648746,286.15818 830.997312,284.261809 C830.195341,283.844876 829.326165,283.634169 828.456989,283.634169 C827.708781,283.634169 826.956093,283.791079 826.248208,284.109382 C816.655914,288.444584 806.776882,290.636843 796.781362,290.636843 C787.758065,290.636843 778.757168,288.825652 770.02509,285.261551 C768.017921,284.441135 766.077957,283.50864 764.218638,282.464067 C763.394265,282.002303 762.516129,281.791596 761.655914,281.791596 C759.151434,281.791596 756.794803,283.584854 756.400538,286.297157 C755.432796,292.963596 753.900538,298.818584 752.493728,303.55727 C747.238351,321.297079 739.541219,335.315876 728.958781,346.420629 C716.669355,359.323124 701.176523,367.123798 682.919355,369.602978 C678.519713,370.194753 674.420251,370.486157 670.379032,370.486157 C661.59319,370.486157 653.206093,369.038101 645.459677,366.18682 C627.870072,359.708674 615.804659,345.869202 611.481183,327.210348 C609.129032,317.03809 608.887097,306.699955 610.80914,295.429326 C611.28405,292.645292 609.397849,290.000236 606.633513,289.430876 C600.750896,288.220427 595.092294,286.117831 589.71595,283.136539 C589.281362,282.898933 588.855735,282.65236 588.430108,282.39682 C577.959677,287.772112 566.826165,290.479933 555.168459,290.479933 C552.852151,290.479933 550.491039,290.372337 548.15233,290.152663 C536.001792,289.018427 525.267025,285.243618 516.337814,279.110674 C515.383513,278.456135 514.285842,278.119899 513.183692,278.119899 C512.256272,278.119899 511.319892,278.357506 510.473118,278.846169 C504.913082,282.038169 499.146953,284.544247 493.125448,286.395787 C483.78405,289.265 475.056452,290.663742 466.44086,290.663742 C455.508961,290.663742 445.02957,288.332506 435.307348,283.732798 C431.077957,281.733315 427.21595,279.29 423.757168,276.438719 C422.802867,275.654169 421.655914,275.273101 420.49552,275.273101 C419.25,275.273101 417.99552,275.712449 416.965054,276.550798 C406.974014,284.696674 395.33871,290.695124 382.422043,294.313022 C380.755376,294.77927 379.451613,296.016618 378.824373,297.635034 C372.475806,314.007483 357.184588,324.749101 339.630824,324.749101 C335.383513,324.749101 331.082437,324.099045 326.835125,322.816865 C322.000896,321.359843 317.153226,319.929719 312.117384,318.450281 L272.547491,306.771685 C269.702509,305.933337 268.080645,302.938596 268.927419,300.091798 L274.966846,279.827978 C272.448925,276.555281 271.499104,275.326899 268.981183,272.054202 C267.565412,272.148348 266.158602,272.19318 264.760753,272.19318 C254.742832,272.19318 245.258065,269.812629 236.570789,265.109809 C233.891577,263.666236 231.015233,261.783315 228.174731,259.357933 C227.148746,258.483719 225.916667,258.05782 224.684588,258.05782 C223.179211,258.05782 221.673835,258.694427 220.562724,259.913843 C215.096774,265.898843 207.363799,269.619854 199.232079,269.700551 C193.846774,269.754348 171.835125,269.758831 162.798387,269.758831 L158.896057,269.758831 C158.846774,269.758831 158.806452,269.749865 158.757168,269.749865 C158.219534,271.489326 157.695341,273.23327 157.148746,274.968247 C153.434588,286.938247 146.862007,292.362854 134.465054,292.448034 L134.034946,292.448034 C126.642473,292.448034 76.1675627,291.717281 56.9605735,291.434843 C53.3046595,291.381045 50.7956989,287.767629 51.9964158,284.311124 L70.0833333,232.275247 C70.7553763,230.343011 70.2715054,228.204551 68.8422939,226.747528 L51.0376344,208.653551 C50.9301075,208.545955 50.8181004,208.42491 50.7195341,208.308348 C37.9327957,193.428787 29.7204301,178.056079 25.6209677,161.329461 C22.1039427,146.987876 21.7768817,132.982528 24.6397849,119.69 C30.5851254,92.1096854 47.0681004,70.5233371 72.3010753,57.2666742 C86.2706093,49.9322472 101.673835,46.211236 118.080645,46.211236 C122.260753,46.211236 126.561828,46.457809 130.858423,46.9464719 C138.636201,47.8251685 145.800179,49.6453258 152.126344,51.2547753 C154.303763,51.8106854 156.481183,52.3665955 158.663082,52.873191 C159.066308,52.9628539 159.447133,53.0076854 159.859319,53.0121685 C165.18638,53.025618 185.087814,53.025618 185.087814,53.025618 L216.803763,53.025618 C220.334229,53.025618 222.901434,56.3879775 221.978495,59.7951685 L213.828853,89.8143146 C213.430108,91.329618 213.022401,92.7283596 212.623656,94.1584831 C214.433692,94.154 236.248208,94.154 236.248208,94.154 C239.281362,94.154 241.629032,94.6561124 242.632616,94.8713034 L243.591398,95.0461461 C250.258065,92.8090562 256.982975,91.6748202 263.658602,91.6748202 C272.274194,91.6748202 280.598566,93.5308427 288.47043,97.2070225 C289.137993,97.5163596 289.836918,97.6643034 290.531362,97.6643034 C292.260753,97.6643034 293.954301,96.7587079 295.020609,95.2658202 C301.512545,86.1874494 309.863799,78.1402022 319.939964,71.6710225 C326.033154,67.7617191 332.399642,64.596618 338.994624,62.1936517 C340.428315,61.6736067 341.584229,60.606618 342.148746,59.1899438 C344.751792,52.6445506 352.53853,34.4922921 356.140681,26.1177753 C357.005376,24.1093258 358.958781,22.8719775 361.051075,22.8719775 M361.051075,0.456247191 C349.957885,0.456247191 339.957885,7.04647191 335.562724,17.2545955 C332.453405,24.4903933 327.551971,35.9134494 324.164875,44.0189775 C318.551075,46.4981573 313.089606,49.4391011 307.84767,52.8014607 C299.294803,58.2888315 291.633513,64.7580112 284.957885,72.1103708 C278.040323,70.214 270.916667,69.2590899 263.658602,69.2590899 C256.499104,69.2590899 249.294803,70.2095169 242.171147,72.0879551 C242.0681,72.0745056 241.965054,72.0610562 241.862007,72.0520899 L243.595878,65.672573 C245.880824,57.2532247 244.151434,48.4483258 238.855735,41.517382 C233.560036,34.5864382 225.522401,30.6098876 216.803763,30.6098876 L185.087814,30.6098876 C185.083333,30.6098876 168.963262,30.6098876 161.888889,30.6009213 C160.544803,30.2736517 159.200717,29.9284494 157.852151,29.5832472 L157.84319,29.5832472 L157.637097,29.5294494 C150.96595,27.8303371 142.663978,25.7187753 133.367384,24.6697191 C128.237455,24.0913933 123.094086,23.7955056 118.080645,23.7955056 C98.0089606,23.7955056 79.1066308,28.381764 61.8933692,37.4197865 C30.5851254,53.8594831 10.1326165,80.6776629 2.74462366,114.964764 C-0.844086022,131.610685 -0.467741935,149.005292 3.86469534,166.668888 C8.82437276,186.901326 18.5913978,205.30464 33.7302867,222.918921 C34.1469534,223.407584 34.6039427,223.905213 35.0654122,224.375944 L45.4462366,234.920303 L30.8405018,276.949798 C27.9193548,285.355697 29.218638,294.729955 34.3172043,302.015067 C39.40681,309.295697 47.7491039,313.720562 56.6335125,313.850573 C77.4175627,314.155427 126.566308,314.863764 134.034946,314.863764 L134.612903,314.863764 C147.753584,314.774101 164.348566,310.48373 174.182796,292.170079 C184.048387,292.165596 195.670251,292.152146 199.447133,292.116281 C208.62724,292.022135 217.623656,289.368112 225.482079,284.593562 C225.629928,284.674258 225.777778,284.754955 225.925627,284.835652 C232.84767,288.579079 240.132616,291.26 247.708781,292.856 L247.457885,293.689865 C245.334229,300.813584 246.11828,308.336303 249.662186,314.87273 C253.206093,321.409157 259.084229,326.170258 266.212366,328.272854 L305.782258,339.951449 C310.786738,341.421921 315.585125,342.834112 320.374552,344.277685 C326.714158,346.191989 333.197133,347.164831 339.630824,347.164831 C363.515233,347.164831 384.886201,334.186124 396.13172,313.478472 C404.886201,310.398551 413.129928,306.372685 420.777778,301.441225 C422.395161,302.34682 424.048387,303.203101 425.737455,304.001101 C438.47491,310.021966 452.171147,313.079472 466.44086,313.079472 C477.314516,313.079472 488.192652,311.357944 499.702509,307.825225 C504.079749,306.475798 508.385305,304.839449 512.578853,302.929629 C522.650538,308.130079 533.873656,311.331045 546.073477,312.469764 C549.084229,312.752202 552.148746,312.895663 555.168459,312.895663 C566.185484,312.895663 576.897849,311.030674 587.153226,307.345528 C586.929211,315.82764 587.762545,324.072146 589.657706,332.27182 C595.65681,358.153022 613.174731,378.183719 637.722222,387.221742 C647.959677,390.992067 658.945341,392.901888 670.379032,392.901888 C675.437276,392.901888 680.517921,392.547719 685.921147,391.812483 C709.348566,388.638416 729.285842,378.56927 745.177419,361.883 C758.219534,348.195955 767.623656,331.263112 773.913978,310.125079 C781.44086,312.070764 789.09319,313.052573 796.781362,313.052573 C807.399642,313.052573 817.919355,311.192067 828.143369,307.511404 C831.212366,308.681506 834.375448,309.658831 837.614695,310.425449 C844.648746,312.084213 851.817204,312.922562 858.93638,312.922562 C866.642473,312.922562 874.357527,311.940753 881.942652,310.004034 C884.603943,310.434416 887.247312,310.645124 889.922043,310.645124 L907.946237,310.663056 C915.383513,310.663056 922.798387,310.645124 930.213262,310.56891 C939.41129,310.479247 948.403226,307.838674 956.252688,303.082056 C965.486559,308.34527 975.836022,311.559685 986.790323,312.496663 C989.680108,312.743236 992.587814,312.868764 995.432796,312.868764 C1003.42115,312.868764 1011.34229,311.900404 1019.03047,309.990584 C1021.64247,310.412 1024.28136,310.622708 1026.92025,310.622708 L1042.05018,310.622708 C1052.09946,310.622708 1064.05287,310.618225 1067.56541,310.600292 C1077.07258,310.542011 1086.40054,307.686247 1094.44713,302.642708 C1106.54391,309.394326 1120.15054,312.985326 1134.2052,312.985326 C1146.30197,312.985326 1158.42115,310.429933 1170.2267,305.390876 C1194.00358,295.25 1208.98118,277.590888 1218.17473,265.190506 C1228.48835,251.283787 1235.81362,237.06773 1242.18907,223.775202 C1254.37097,198.382663 1244.63978,168.368 1220.03853,155.434124 C1218.35394,154.546461 1216.65143,153.672247 1214.96685,152.820449 C1210.16846,127.82691 1194.07975,106.796472 1171.09588,95.9920899 L1173.89158,86.8913034 C1176.44982,78.5661011 1174.91756,69.3980674 1169.78763,62.3595281 C1164.66219,55.3254719 1156.40502,51.0575169 1147.7043,50.9499213 L1078.41667,50.080191 L1078.13441,50.080191 C1053.68548,50.080191 1033.41667,65.3094382 1026.49462,88.8863034 C1026.00179,90.5719663 1025.53136,92.2083146 1025.07437,93.8132809 C1015.10573,89.8008652 1004.73387,87.7744831 994.146953,87.7744831 C987.314516,87.7744831 980.450717,88.6352472 973.685484,90.3433258 C965.979391,90.3253933 936.476703,90.2491798 928.703405,90.2491798 L926.951613,90.2536629 C922.148746,90.2805618 917.408602,91.0023483 912.793907,92.4010899 C902.637097,90.1998652 899.814516,90.1998652 898.035842,90.1998652 L896.776882,90.1998652 C889.191756,90.1998652 863.958781,90.2043483 857.762545,90.2626292 C853.748208,90.3029775 849.787634,90.8140562 845.921147,91.791382 C843.094086,90.8275056 840.114695,90.3298764 837.090502,90.3209101 L816.154122,90.2671124 C804.052867,55.8096517 772.928315,33.6673933 736.293011,33.6673933 C727.189068,33.6673933 718.094086,35.0482022 709.25448,37.7739551 C686.113799,44.9066404 667.708781,60.3152135 654.550179,83.5692921 C653.344982,85.6987865 652.198029,87.8865618 651.104839,90.1595169 L619.326165,90.1550337 C614.962366,90.1550337 610.728495,90.6078315 606.678315,91.513427 C599.675627,89.4377303 592.327957,88.2721124 584.760753,88.0389888 L584.438172,88.0210562 L583.833333,88.0210562 C582.771505,88.0210562 582.036738,88.0210562 563.120968,89.6305056 L567.390681,75.7775843 C569.975806,67.3806517 568.412186,58.1543371 563.201613,51.093382 C557.986559,44.0279438 549.653226,39.8048202 540.907706,39.8048202 C538.483871,39.8048202 536.064516,40.1231236 533.712366,40.750764 C517.0681,45.2025281 482.242832,54.5050562 463.488351,59.5127303 C462.287634,55.5272135 460.706093,51.6627416 458.757168,47.9865618 C450.405914,32.1969213 436.095878,20.7514494 418.47043,15.7751573 C416.736559,15.2864944 381.400538,5.16803371 368.685484,1.5277191 C366.198925,0.814898876 363.63172,0.456247191 361.051075,0.456247191" id="Fill-2" fill="#FFFFFF"></path>
                    <path d="M763.716846,237.287404 C753.896057,246.840989 742.489247,253.265337 728.47043,254.861337 C728.913978,257.080494 729.303763,258.918584 729.639785,260.76564 C731.637993,271.843494 729.836918,282.607528 726.700717,293.196719 C723.192652,305.023258 718.125448,316.074213 709.482975,325.143618 C701.239247,333.79609 691.104839,338.628921 679.285842,340.233888 C670.916667,341.368124 662.708781,341.170865 654.72043,338.229921 C645.396953,334.795831 639.854839,327.954551 637.646057,318.427865 C635.096774,307.421742 636.75448,296.644258 639.998208,286.032652 C643.546595,274.443719 647.162186,262.881685 650.728495,251.301719 C650.903226,250.73236 650.844982,250.09127 650.867384,249.795382 C645.603047,252.512169 640.526882,255.825213 634.980287,257.851596 C624.236559,261.778831 613.282258,262.751674 602.713262,256.892202 C598.757168,254.704427 595.997312,251.346551 594.043907,247.29827 C593.546595,246.267146 593.00448,245.253955 592.305556,243.895562 C590.150538,245.756067 588.277778,247.446213 586.324373,249.033247 C575.921147,257.488461 564.173835,261.922292 550.625448,260.658045 C535.786738,259.272753 524.87276,252.265596 518.976703,238.206449 C518.663082,237.457764 518.273297,236.744944 517.726703,235.624157 C516.90233,236.386292 516.181004,236.973584 515.549283,237.650539 C507.036738,246.823056 497.283154,254.260596 485.204301,257.97264 C472.323477,261.931258 459.326165,262.639596 446.767921,256.699427 C438.407706,252.749775 433.501792,245.747101 431.230287,236.919787 C428.00448,224.375944 429.88172,212.092124 433.501792,199.951764 C436.387097,190.259202 439.366487,180.598022 442.283154,170.91891 C442.404122,170.51991 442.301075,170.04918 442.301075,169.233247 L430.571685,169.233247 C431.534946,165.808124 432.318996,162.858213 433.197133,159.935202 C435.34767,152.780101 437.489247,145.625 439.783154,138.519213 C440.02509,137.770528 441.225806,136.923213 442.050179,136.851483 C444.590502,136.631809 447.184588,136.546629 449.71147,136.824584 C452.314516,137.115989 453.201613,135.847258 453.833333,133.672933 C456.001792,126.239876 458.327061,118.851652 460.486559,111.414112 C461.064516,109.419112 461.938172,108.231079 464.137993,107.652753 C476.28405,104.438337 488.376344,101.031146 500.491039,97.7046517 C503.080645,96.9918315 505.688172,96.3372921 508.887097,95.4944607 C504.590502,109.454978 500.482079,122.787854 496.216846,136.636292 L524.200717,136.636292 C523.322581,139.900022 522.637097,142.666124 521.821685,145.39636 C519.71147,152.466281 517.498208,159.50482 515.419355,166.583708 C514.87276,168.43973 513.967742,169.255663 511.942652,169.228764 C504.357527,169.134618 496.767921,169.282562 489.187276,169.134618 C487.06362,169.09427 486.095878,169.784674 485.50448,171.752775 C482.265233,182.57509 478.878136,193.357056 475.670251,204.188337 C474.25448,208.976337 472.493728,213.795719 472.032258,218.709247 C471.104839,228.634933 477.471326,233.095663 487.000896,229.791584 C494.191756,227.303438 499.922043,222.676831 504.993728,217.21636 C508.026882,213.943663 510.625448,210.271966 513.555556,206.90064 C515.683692,204.452843 516.58871,201.57018 517.233871,198.512674 C521.185484,179.889685 529.689068,163.710011 543.62276,150.668539 C554.662186,140.339371 567.623656,134.192978 583.089606,134.614393 C594.706989,134.932697 603.976703,139.756562 610.455197,149.583618 C610.795699,150.108146 611.189964,150.601292 611.933692,151.618966 C613.017921,148.33282 613.963262,145.441191 614.922043,142.545079 C617.086022,136.022101 615.078853,136.793202 622.489247,136.770787 C633.640681,136.739404 644.792115,136.766303 655.939068,136.766303 L659.747312,136.766303 C659.164875,139.057191 658.770609,140.958045 658.201613,142.805101 C653.604839,157.783292 648.958781,172.743551 644.362007,187.721742 C640.997312,198.692 637.663978,209.675708 634.375448,220.668382 C633.882616,222.322663 633.537634,224.053157 633.394265,225.770202 C633.085125,229.415 635.096774,231.427933 638.533154,230.347494 C641.216846,229.50018 643.909498,227.998326 646.019713,226.133337 C653.349462,219.628292 658.107527,211.150663 663.277778,202.964438 C669.133513,193.697775 671.463262,183.171348 674.671147,172.949775 C679.008065,159.128236 683.282258,145.288764 687.493728,131.43136 C690.217742,122.451618 692.744624,113.404629 697.408602,105.164607 C703.492832,94.4185056 711.637993,85.9229438 723.743728,82.1929663 C742.435484,76.4276404 763.013441,83.533427 769.948925,104.823888 C772.569892,112.875618 772.52509,121.147022 770.634409,129.440843 C767.22491,144.396618 762.83871,159.047539 757.014337,173.236697 C752.238351,184.879427 746.324373,195.82727 736.355735,204.040393 C729.747312,209.487416 722.032258,212.634584 713.972222,215.077899 C711.449821,215.844517 708.819892,216.283865 706.328853,217.13118 C705.379032,217.453966 704.290323,218.350596 703.93638,219.251708 C702.968638,221.695022 702.359319,224.281798 701.557348,226.976169 C706.024194,229.778135 710.867384,231.23964 715.903226,232.12282 C732.448925,235.014449 744.971326,227.953494 755.410394,215.938663 C761.794803,208.59527 767.000896,200.386629 771.028674,191.599663 C773.663082,185.85227 775.065412,179.531034 776.938172,173.442921 C780.508961,161.862955 783.990143,150.25609 787.623656,138.698539 C787.874552,137.900539 789.08871,136.860449 789.859319,136.855966 C803.380824,136.784236 816.90681,136.855966 830.428315,136.900798 C830.50448,136.900798 830.580645,136.990461 831.12724,137.326697 C830.724014,138.92718 830.352151,140.729404 829.818996,142.477831 C824.205197,160.952876 818.533154,179.414472 812.941756,197.898483 C811.413978,202.955472 809.966846,208.03936 808.730287,213.172562 C807.354839,218.852708 809.639785,223.712438 813.94086,224.479056 C818.026882,225.209809 821.732079,224.277315 825.419355,222.138854 C831.319892,218.718213 833.062724,213.109798 834.827957,207.151697 C839.917563,189.945382 845.280466,172.824247 850.526882,155.662764 C852.229391,150.090213 853.828853,144.481798 855.679211,138.954079 C855.983871,138.044 857.341398,136.869416 858.219534,136.860449 C871.472222,136.734921 884.72491,136.784236 897.977599,136.802169 C898.237455,136.802169 898.501792,136.91873 899.281362,137.107022 C898.528674,139.873124 897.861111,142.630258 897.027778,145.333596 C892.090502,161.446022 887.108423,177.545 882.148746,193.648461 C879.442652,202.444393 876.727599,211.235843 874.08871,220.049708 C873.542115,221.878831 873.16129,223.779685 872.950717,225.680539 C872.551971,229.240157 874.630824,231.41 877.99552,230.360944 C880.764337,229.50018 883.564516,227.98936 885.728495,226.061607 C893.537634,219.117213 898.577957,210.070225 904.012545,201.296708 C908.721326,193.702258 910.679211,185.170831 913.300179,176.863562 C917.301075,164.180742 921.024194,151.412742 924.975806,138.711989 C925.226703,137.913989 926.43638,136.860449 927.206989,136.855966 C940.728495,136.788719 954.25,136.869416 967.767025,136.91873 C967.84767,136.923213 967.928315,137.00391 968.510753,137.340146 C967.84767,139.864157 967.148746,142.549562 966.306452,145.763978 C969.581541,143.504472 972.198029,141.361528 975.105735,139.747596 C986.418459,133.471191 998.067204,132.319022 1009.87276,138.317472 C1017.19355,142.042966 1021.17204,148.525596 1023.14337,156.223157 C1025.67921,166.121944 1024.81452,175.993831 1021.92025,185.690876 C1018.44803,197.302225 1014.79659,208.859775 1011.28853,220.457674 C1010.79122,222.107472 1010.53136,223.851416 1010.35663,225.572944 C1009.96237,229.455348 1012.08154,231.513112 1015.81362,230.280247 C1018.48387,229.397067 1021.10932,227.796584 1023.23297,225.918146 C1029.5905,220.296281 1033.84229,213.002202 1038.46147,205.981596 C1044.97581,196.06936 1048.30914,184.937708 1051.64247,173.747775 C1055.80466,159.778292 1060.11918,145.858124 1064.37993,131.920022 C1067.73566,120.945281 1071.17652,109.992955 1074.41129,98.9778652 C1075.14606,96.4673034 1076.19892,95.5527416 1078.91846,95.5930899 C1090.98387,95.7634494 1103.04928,95.6603371 1115.11022,95.6737865 C1116.16756,95.6737865 1117.22043,95.7724157 1118.72133,95.8486292 C1113.37634,113.256685 1108.14785,130.265742 1102.83871,147.54827 C1106.56183,144.894247 1109.77419,142.208843 1113.34498,140.137629 C1124.21416,133.829843 1135.83602,132.570079 1147.60573,136.873899 C1163.03136,142.509213 1168.76165,157.460506 1166.73656,171.573449 C1163.98566,190.765798 1152.68638,203.95073 1136.41398,213.405685 C1133,215.387236 1132.91039,215.306539 1134.22312,218.973753 C1134.80556,220.601135 1135.4552,222.219551 1136.25717,223.739337 C1139.97581,230.777876 1146.04659,232.52182 1152.99552,228.53182 C1159.16487,224.990135 1163.73925,219.713472 1167.53405,213.894348 C1172.15771,206.806494 1176.35573,199.431719 1180.50448,192.052461 C1181.68728,189.940899 1182.87007,189.232562 1184.98029,190.272652 C1189.02599,192.272135 1193.07616,194.262652 1197.0681,196.365247 C1198.48835,197.113933 1198.52419,198.091258 1197.74014,199.723124 C1192.17115,211.325506 1186.26165,222.726146 1178.57348,233.095663 C1171.10484,243.173775 1162.66846,252.288011 1150.87634,257.318101 C1133.78405,264.607697 1116.06004,261.402247 1104.90412,243.60864 C1099.07527,234.315079 1095.56272,224.093506 1092.46685,213.679157 C1092.08154,212.370079 1091.98746,210.926506 1091.37814,209.738472 C1089.78763,206.636135 1091.47222,205.735022 1094.05735,204.815978 C1100.95699,202.36818 1107.51613,199.194112 1113.13889,194.392663 C1116.67384,191.371022 1119.45609,187.865202 1120.24014,183.04582 C1121.53047,175.133067 1115.39695,169.143584 1107.54749,170.806831 C1102.20699,171.941067 1097.6595,174.577157 1094.11111,178.692685 C1093.10305,179.862787 1092.6371,181.575348 1092.16667,183.113067 C1084.91308,206.712348 1077.7043,230.325079 1070.48208,253.933326 C1070.1595,254.982382 1070.00717,256.139034 1069.43817,257.026697 C1068.9767,257.735034 1068,258.568899 1067.24731,258.573382 C1053.81541,258.654079 1040.37903,258.618213 1026.94713,258.595798 C1026.69624,258.595798 1026.44982,258.416472 1025.93011,258.21473 C1026.69176,255.358966 1027.45341,252.507685 1028.21505,249.651921 C1028.0448,249.508461 1027.87007,249.365 1027.69982,249.226022 C1027.01882,249.687787 1026.32437,250.136101 1025.65681,250.615798 C1015.27599,258.044371 1003.8647,261.756416 990.97491,260.649079 C980.069892,259.716584 971.732079,252.543551 969.124552,241.896079 C966.324373,230.446124 968.336022,219.457933 971.58871,208.487674 C974.151434,199.848652 976.664875,191.187213 978.963262,182.476461 C979.948925,178.733034 979.88172,174.689236 976.454301,172.160742 C972.892473,169.538101 968.78853,170.286787 964.971326,172.035213 C958.358423,175.06582 955.132616,180.427663 953.170251,187.394472 C948.224014,204.923573 942.623656,222.264382 937.305556,239.685888 C935.603047,245.262921 934.030466,250.880303 932.193548,256.412506 C931.888889,257.331551 930.558244,258.537517 929.689068,258.546483 C916.44086,258.680978 903.188172,258.636146 889.935484,258.618213 C889.586022,258.618213 889.241039,258.47027 888.560036,258.31336 C889.335125,255.332067 890.092294,252.431472 890.97043,249.064629 C887.117384,251.400348 883.909498,253.623989 880.464158,255.390348 C870.482079,260.496652 859.957885,262.321292 848.913978,259.716584 C841.839606,258.044371 836.691756,253.852629 833.551075,247.248955 C833.246416,246.607865 832.852151,246.007124 832.53853,245.46018 C828.412186,248.454921 824.586022,251.750034 820.293907,254.23818 C807.520609,261.639854 794.034946,263.312067 780.159498,257.645371 C771.929211,254.287494 767.112903,247.69727 764.706989,239.255506 C764.581541,238.82064 764.465054,238.381292 764.326165,237.95091 C764.303763,237.874697 764.209677,237.816416 763.716846,237.287404 L763.716846,237.287404 Z M598.810932,189.241528 C598.810932,188.510775 598.851254,187.780022 598.806452,187.053753 C598.138889,176.603539 588.609319,171.461371 579.599462,176.755966 C574.008065,180.046596 570.204301,185.05427 567.126344,190.62682 C562.941756,198.20782 560.625448,206.223685 561.897849,215.006169 C562.704301,220.574236 566.844086,224.344562 572.38172,224.71218 C576.364695,224.976685 579.769713,223.604843 582.735663,221.19291 C592.852151,212.966337 597.834229,202.090225 598.810932,189.241528 L598.810932,189.241528 Z M708.089606,270.35509 C708.089606,257.98609 705.33871,253.915393 696.767921,250.786157 C694.760753,250.055404 694.182796,250.674079 693.667563,252.359742 C689.290323,266.710292 684.836918,281.038427 680.513441,295.40691 C679.550179,298.607876 678.62276,301.911955 678.367384,305.225 C678.013441,309.775393 680.486559,311.93627 684.998208,311.842124 C690.150538,311.730045 693.761649,308.90118 696.454301,304.929112 C703.949821,293.860225 707.247312,281.401562 708.089606,270.35509 L708.089606,270.35509 Z M712.610215,190.976506 C712.802867,191.137899 712.99552,191.294809 713.188172,191.451719 C714.984767,190.613371 716.821685,189.851236 718.568996,188.914258 C725.983871,184.942191 730.410394,178.25782 733.295699,170.815798 C738.089606,158.446798 742.332437,145.844674 746.405018,133.215652 C747.775986,128.961146 748.264337,124.330056 748.533154,119.837944 C748.716846,116.802854 746.499104,114.825787 743.568996,114.117449 C740.65681,113.418079 737.556452,114.700258 735.912186,118.067101 C734.129032,121.720865 732.753584,125.612236 731.534946,129.50809 C726.826165,144.535596 722.251792,159.603449 717.623656,174.653371 C715.952509,180.09591 714.281362,185.533966 712.610215,190.976506 L712.610215,190.976506 Z" id="Fill-3" fill="#FFFFFF"></path>
                    <path d="M71.2078853,188.210404 C61.9202509,177.432921 55.0430108,165.826056 51.7051971,152.210742 C49.2948029,142.374719 48.766129,132.534213 50.8942652,122.65336 C55.2177419,102.595764 66.6917563,87.8686292 84.7741935,78.3733258 C98.2732975,71.2809888 112.901434,69.2770225 127.816308,70.9626854 C136.525986,71.9489775 145.03853,74.6836966 153.645161,76.6069663 C154.87276,76.8804382 156.13172,77.180809 157.37724,77.1852921 C166.606631,77.2346067 175.836022,77.212191 185.060932,77.212191 L188.62276,77.212191 C187.740143,80.4490225 187.045699,83.3047865 186.185484,86.111236 C178.999104,109.620854 171.785842,133.125989 164.56362,156.631124 C157.077061,181.005989 149.56362,205.371888 142.077061,229.74227 C138.546595,241.232573 135.069892,252.740809 131.476703,264.208697 C131.257168,264.921517 130.226703,265.871944 129.5681,265.876427 C115.679211,265.961607 101.794803,265.925742 87.905914,265.903326 C87.6505376,265.903326 87.3951613,265.741933 86.5170251,265.446045 C103.255376,210.760629 119.993728,156.08418 136.893369,100.869753 C133.976703,100.354191 131.43638,99.7579326 128.864695,99.4710112 C113.801971,97.8122472 98.9498208,104.106584 94.1066308,120.703191 C90.7867384,132.085899 92.4758065,142.912697 97.7132616,153.322562 C98.9408602,155.761393 100.365591,158.110562 101.853047,160.396966 C102.753584,161.777775 102.829749,162.651989 101.405018,163.790708 C91.3691756,171.828989 81.4005376,179.952449 71.2078853,188.210404" id="Fill-4" fill="#FFFFFF"></path>
                    <path d="M290.97043,208.841843 C289.738351,209.747438 288.425627,210.572337 286.996416,211.267225 C284.939964,212.266966 282.404122,212.988753 280.867384,211.244809 C279.787634,210.02091 279.41129,207.402753 279.86828,205.721573 C282.771505,195.092034 285.8181,184.49836 289.160394,173.998831 C292.350358,163.987966 294.657706,153.896404 293.398746,143.334112 C292.269713,133.88364 288.716846,125.527056 280.1819,120.505933 C269.738351,114.355056 258.725806,114.619562 247.901434,119.497225 C243.663082,121.407045 239.86828,124.294191 235.603047,126.903382 C236.328853,124.114865 237.036738,121.420494 237.767025,118.623011 C236.897849,118.461618 236.543907,118.340573 236.194444,118.340573 C223.035842,118.327124 209.87724,118.282292 196.718638,118.412303 C195.827061,118.416787 194.420251,119.591371 194.137993,120.496966 C188.604839,138.232292 183.224014,156.016933 177.780466,173.78364 C171.90681,192.940124 165.997312,212.08764 160.128136,231.244124 C159.258961,234.072989 158.515233,236.942202 157.708781,239.811416 C158.394265,240.008674 158.649642,240.147652 158.909498,240.147652 C172.251792,240.170067 185.589606,240.219382 198.9319,240.093854 C199.783154,240.084888 201.086918,238.847539 201.396057,237.919528 C203.322581,232.131787 205.020609,226.267831 206.799283,220.430775 C211.982975,203.444135 217.435484,186.538191 222.22491,169.443955 C224.218638,162.324719 227.310036,156.658022 234.182796,153.564652 C238.013441,151.843124 242.121864,151.080989 245.66129,153.726045 C249.043907,156.254539 249.120072,160.271438 248.134409,164.041764 C246.163082,171.613798 244.084229,179.167899 241.772401,186.645787 C238.403226,197.535348 235.692652,208.478708 237.551971,220.000393 C238.819892,227.886247 242.005376,234.776843 249.330645,238.735461 C259.621864,244.303528 270.33871,243.142393 280.889785,239.582775 C286.90233,237.556393 292.238351,234.386809 297.094982,230.517854 C294.151434,226.115404 292.108423,221.10773 291.234767,215.373787 C290.898746,213.172562 290.822581,210.980303 290.97043,208.841843" id="Fill-5" fill="#FFFFFF"></path>
                    <path d="M339.608423,288.274225 C338.636201,288.274225 337.663978,288.112831 336.552867,287.776596 C331.602151,286.283708 326.629032,284.822202 321.463262,283.302416 L309.375448,279.738315 L316.75,254.977899 C316.723118,254.964449 316.700717,254.951 316.678315,254.937551 C313.008961,252.973933 309.214158,250.943067 305.634409,248.459404 C299.702509,244.34836 294.908602,239.596225 291.391577,234.337494 C287.775986,228.926337 285.437276,222.896506 284.451613,216.409393 C284.048387,213.755371 283.93638,211.047551 284.129032,208.357663 C285.083333,194.814079 293.62724,183.485169 305.889785,179.490685 C308.981183,178.486461 312.256272,177.944 315.620968,177.885719 L316.12276,177.881236 C320.280466,177.881236 324.339606,178.750966 328.071685,180.42318 C325.482079,177.553966 323.062724,174.447146 320.898746,171.035472 C305.051971,146.113663 312.623656,113.758798 338.134409,97.377382 C347.305556,91.4954944 357.314516,88.2496966 367.901434,87.7206854 C369.366487,82.5471348 370.912186,77.396 372.457885,72.2493483 L373.591398,68.465573 C373.833333,67.6630899 374.160394,66.8875056 374.572581,65.9863933 L374.935484,65.1839101 L377.314516,59.6427416 L385.491039,61.9605281 C387.332437,62.4760899 389.164875,62.9916517 390.983871,63.5251461 L395.786738,64.9552697 C398.259857,65.6949888 400.732975,66.439191 403.219534,67.1385618 C405.992832,67.9186292 407.977599,69.4115169 409.120072,71.5679101 C410.271505,73.7467191 410.383513,76.2707303 409.451613,79.0682135 C408.241935,82.7085281 407.139785,86.389191 406.037634,90.0653708 C405.701613,91.1861573 405.365591,92.3069438 405.02957,93.4232472 C414.335125,97.283236 421.673835,102.44782 427.439964,109.154607 C436.785842,120.026236 440.298387,131.911056 437.887993,144.481798 C435.477599,157.030124 424.424731,167.247213 411.611111,168.767 C410.163978,168.93736 408.707885,169.022539 407.287634,169.022539 C404.935484,169.022539 402.659498,168.789416 400.482079,168.336618 C402.511649,170.461629 404.460573,172.694236 406.306452,175.06582 C420.419355,193.200146 420.311828,217.404652 406.028674,236.727011 C396.736559,249.29327 383.846774,257.264303 367.722222,260.406989 C362.887993,261.352933 358,261.778831 353.551075,262.110584 C352.632616,265.275685 351.673835,268.418371 350.719534,271.556573 C349.684588,274.950315 348.649642,278.339573 347.668459,281.746764 C345.930108,287.799011 341.060036,288.274225 339.608423,288.274225 L339.608423,288.274225 Z M344.917563,216.499056 C345.383513,216.530438 345.862903,216.543888 346.346774,216.543888 C347.780466,216.543888 349.312724,216.40491 350.907706,216.122472 C354.030466,215.580011 356.257168,214.504056 357.910394,212.751146 C359.594982,210.962371 361.006272,208.241101 358.174731,205.416719 C355.356631,202.605787 351.808244,200.099708 348.380824,197.674326 C346.181004,196.118674 343.963262,194.513708 341.772401,192.828045 C345.885305,199.920382 347.108423,208.519056 344.917563,216.499056 L344.917563,216.499056 Z M377.22043,131.763112 C373.555556,132.076933 370.33871,133.681899 368.976703,135.954854 C367.278674,138.792685 368.228495,139.832775 368.636201,140.28109 C371.557348,143.477573 374.989247,146.373685 378.425627,149.157719 C378.044803,148.099697 377.713262,147.005809 377.435484,145.885022 C376.243728,141.052191 376.176523,136.259708 377.22043,131.763112 L377.22043,131.763112 Z" id="Fill-6" fill="#FFDF17"></path>
                    <path d="M381.239247,67.8917303 C383.869176,68.6404157 386.467742,69.353236 389.052867,70.1108876 C393.15681,71.3168539 397.242832,72.5855843 401.355735,73.7467191 C403.138889,74.2488315 403.586918,74.9661348 402.941756,76.8983708 C400.903226,83.0313146 399.164875,89.2673708 397.229391,95.4406629 C396.687276,97.1756404 397.256272,97.8301798 398.900538,98.4174719 C407.879032,101.618438 415.956989,106.325742 422.238351,113.628787 C429.541219,122.124348 433.340502,131.772079 431.149642,143.186169 C429.281362,152.910112 420.585125,160.787 410.800179,161.948135 C409.608423,162.087112 408.434588,162.158843 407.287634,162.158843 C395.800179,162.158843 386.812724,155.214449 384.09767,144.235225 C382.861111,139.236517 383.049283,134.071933 385.316308,129.216685 C385.728495,128.320056 386.136201,127.423427 386.633513,126.329539 C383.994624,125.320831 381.225806,124.841135 378.533154,124.841135 C372.041219,124.841135 365.97043,127.620685 363.094086,132.426618 C360.567204,136.640775 360.226703,141.249449 363.573477,144.91218 C367.354839,149.04564 371.785842,152.627674 376.172043,156.151427 C385.002688,163.243764 393.860215,170.246438 400.894265,179.284461 C413.586918,195.594146 412.287634,216.714247 400.508961,232.642865 C391.991935,244.169034 380.356631,250.947551 366.409498,253.673303 C361.422939,254.646146 356.306452,255.031697 351.225806,255.399315 C349.191756,255.547258 348.147849,256.040404 347.556452,258.129551 C345.5,265.39673 343.16129,272.587697 341.073477,279.850393 C340.750896,280.984629 340.325269,281.406045 339.608423,281.406045 C339.308244,281.406045 338.954301,281.334315 338.542115,281.208787 C331.835125,279.182404 325.110215,277.22327 317.914875,275.098258 C320.307348,267.064461 322.655018,259.192056 324.913082,251.615539 C319.599462,248.607348 314.294803,246.110236 309.541219,242.815124 C304.532258,239.345169 300.284946,235.283438 297.094982,230.517854 C294.151434,226.115404 292.108423,221.10773 291.234767,215.373787 C290.898746,213.172562 290.822581,210.980303 290.97043,208.841843 C291.709677,198.431978 298.008961,189.277393 308.013441,186.018146 C310.387993,185.247045 312.968638,184.79873 315.732975,184.753899 C315.867384,184.749416 315.992832,184.749416 316.12276,184.749416 C320.853943,184.749416 325.123656,186.184022 328.667563,188.573539 C338.134409,194.962022 342.422043,208.209719 336.413978,219.399652 C336.154122,219.879348 335.921147,220.376978 335.553763,221.10773 C339.084229,222.726146 342.69086,223.412067 346.342294,223.412067 C348.246416,223.412067 350.163978,223.223775 352.090502,222.887539 C356.181004,222.170236 359.953405,220.587685 362.901434,217.458449 C367.753584,212.311798 368.031362,205.555697 363.017921,200.556989 C359.818996,197.360506 356.051075,194.693034 352.336918,192.070393 C342.516129,185.130483 333.255376,177.679494 326.687276,167.350326 C312.516129,145.06909 320.396953,116.923899 341.844086,103.156157 C350.222222,97.776382 359.474014,94.8130225 369.424731,94.5305843 C372.453405,94.4409213 373.497312,93.172191 374.214158,90.6212809 C376.109319,83.8651798 378.15233,77.1539101 380.163978,70.429191 C380.396953,69.662573 380.791219,68.9407865 381.239247,67.8917303 M373.380824,51.3937528 L368.62724,62.480573 C368.528674,62.7181798 368.430108,62.9244045 368.340502,63.1216629 C367.964158,63.9375955 367.448925,65.058382 367.018817,66.4929888 L365.921147,70.151236 C364.827957,73.8005169 363.707885,77.5304944 362.610215,81.2918539 C352.641577,82.5247191 343.188172,85.9812247 334.433692,91.6030899 C306.893369,109.275652 297.950717,143.535854 312.99552,171.143067 C309.827957,171.385157 306.736559,171.994865 303.766129,172.963225 C288.833333,177.827438 278.439068,191.527933 277.283154,207.873483 C277.05914,211.069966 277.189068,214.293348 277.668459,217.445 C278.810932,224.931854 281.508065,231.898663 285.692652,238.152652 C289.693548,244.133169 295.087814,249.499494 301.727599,254.103685 C304.003584,255.681753 306.301971,257.062562 308.586918,258.349225 L300.831541,284.373888 L314.030466,288.269742 L319.675627,289.932989 C324.774194,291.43036 329.680108,292.873933 334.577061,294.353371 C336.324373,294.882382 337.968638,295.137921 339.608423,295.137921 C344.841398,295.137921 351.826165,292.12973 354.263441,283.647618 C355.231183,280.280775 356.252688,276.931865 357.274194,273.582955 C357.775986,271.933157 358.286738,270.256461 358.797491,268.566315 C362.090502,268.252494 365.540323,267.831079 369.034946,267.145157 C386.897849,263.661753 401.198925,254.798573 411.543907,240.806674 C426.346774,220.780461 427.444444,195.060652 414.801075,175.213764 C429.474014,172.434213 441.817204,160.396966 444.626344,145.772944 C447.453405,131.041326 443.421147,117.215303 432.641577,104.675944 C427.386201,98.5609326 421.010753,93.6115393 413.31362,89.6843034 C414.187276,86.7926742 415.03853,84.0041573 415.96147,81.2380562 C417.887993,75.4458315 416.602151,71.0388989 415.1819,68.3579775 C413.770609,65.6905056 410.871864,62.1667528 405.083333,60.5304045 C402.610215,59.8355169 400.150538,59.0957978 397.69086,58.3605618 C396.100358,57.8808652 394.505376,57.4056517 392.910394,56.9349213 C391.077957,56.401427 389.241039,55.881382 387.390681,55.3613371 L384.980287,54.684382 L373.380824,51.3937528" id="Fill-7" fill="#A2801C"></path>
                    <path d="M417.287634,140.307989 L431.189964,81.7805169 L421.651434,141.177719 L456.875448,92.4279888 L425.34767,143.652416 L476.534946,112.104517 L427.820789,147.351011 L487.175627,137.806393 L428.689964,151.717596 L487.175627,165.628798 L427.820789,156.08418 L476.534946,191.335157 L425.34767,159.787258 L456.875448,211.007202 L421.651434,162.257472 L431.189964,221.654674 L417.287634,163.127202 L403.385305,221.654674 L412.923835,162.257472 L377.695341,211.007202 L409.223118,159.787258 L358.035842,191.335157 L406.75448,156.08418 L347.395161,165.628798 L405.885305,151.717596 L347.395161,137.806393 L406.75448,147.351011 L358.035842,112.104517 L409.223118,143.652416 L377.695341,92.4279888 L412.923835,141.177719 L403.385305,81.7805169 L417.287634,140.307989" id="Fill-8" fill="#FFFFFF"></path>
                </g>
            </g>
        </g>
    </g>
</svg>